<svg version="1.1" viewBox="138.4321024 406.7328 755.712 202.752" xmlns="http://www.w3.org/2000/svg" style="max-height: 500px" width="755.712" height="202.752"><path fill-rule="evenodd" fill="#6ebb42" stroke="none" d="M 242.200 458.701 L 246.899 459.105 247.286 464.058 L 247.674 469.011 247.587 463.756 L 247.500 458.500 242.500 458.398 L 237.500 458.296 242.200 458.701 M 250.667 458.667 C 250.300 459.033, 250.007 459.821, 250.015 460.417 C 250.024 461.012, 250.419 460.888, 250.893 460.140 C 251.474 459.221, 253.226 458.896, 256.282 459.140 C 258.772 459.338, 260.600 459.163, 260.346 458.750 C 259.772 457.822, 251.582 457.751, 250.667 458.667 M 244.700 471.715 C 246.547 472.058, 246.962 472.917, 247.287 477.067 L 247.674 482.011 247.587 476.756 C 247.506 471.867, 247.326 471.493, 245 471.404 C 242.929 471.324, 242.877 471.377, 244.700 471.715 M 259.984 476.797 L 260.468 482.500 260.795 477.610 C 260.974 474.921, 260.756 472.355, 260.310 471.907 C 259.865 471.460, 259.718 473.660, 259.984 476.797 M 655.750 481.744 C 660.288 481.929, 667.712 481.929, 672.250 481.744 C 676.788 481.559, 673.075 481.407, 664 481.407 C 654.925 481.407, 651.212 481.559, 655.750 481.744 M 553.698 485.719 C 556.730 486.098, 556.911 486.361, 557.198 490.809 C 557.485 495.263, 557.652 495.505, 560.500 495.593 C 563.330 495.681, 563.345 495.663, 560.750 495.280 C 558.176 494.899, 558 494.557, 558 489.937 L 558 485 554.250 485.160 C 550.633 485.314, 550.614 485.334, 553.698 485.719 M 149.187 487.722 C 157.229 488.050, 157.905 488.240, 158.284 490.288 C 158.627 492.143, 158.677 492.097, 158.596 490 C 158.501 487.531, 158.389 487.499, 149.500 487.434 L 140.500 487.369 149.187 487.722 M 336.402 503 C 336.402 511.525, 336.556 515.013, 336.743 510.750 C 336.931 506.488, 336.931 499.512, 336.743 495.250 C 336.556 490.988, 336.402 494.475, 336.402 503 M 655.415 490.362 C 655.127 491.111, 655.056 494.374, 655.257 497.612 L 655.622 503.500 655.811 496.781 L 656 490.062 668.250 489.747 L 680.500 489.432 668.219 489.216 C 658.626 489.047, 655.823 489.298, 655.415 490.362 M 233 496.238 C 224.478 499.221, 213 505.712, 213 507.549 C 213 509.394, 215.437 509.382, 222.661 507.500 C 230.339 505.500, 237.620 505.640, 242.500 507.881 C 248.219 510.507, 250.216 513.193, 250.775 519.013 L 251.259 524.047 229.879 545.574 L 208.500 567.101 208.500 578.629 C 208.500 588.887, 208.714 590.315, 210.441 591.579 C 211.509 592.361, 212.859 593.011, 213.441 593.024 C 214.024 593.038, 225.442 581.912, 238.817 568.301 C 252.191 554.689, 264.341 542.756, 265.817 541.783 C 272.942 537.084, 283 542.139, 283 550.420 C 283 552.875, 290.868 561, 293.246 561 C 293.957 561, 298.953 556.568, 304.349 551.152 L 314.161 541.303 308.349 536.123 C 303.642 531.928, 302.049 531.050, 299.975 531.506 C 296.950 532.170, 293.907 529.414, 291.619 523.940 C 289.412 518.657, 270.519 499.833, 264.500 496.920 C 257.151 493.363, 242.143 493.038, 233 496.238 M 567.116 499.195 C 567.009 501.682, 566.632 501.914, 562.250 502.195 L 557.500 502.500 557.432 510.253 L 557.365 518.007 557.725 510.503 L 558.084 503 562.573 503 C 567.265 503, 568.600 501.779, 567.701 498.308 C 567.388 497.102, 567.193 497.397, 567.116 499.195 M 461.360 515 C 461.360 520.225, 461.529 522.362, 461.735 519.750 C 461.941 517.138, 461.941 512.862, 461.735 510.250 C 461.529 507.637, 461.360 509.775, 461.360 515 M 723.397 520 C 723.397 527.975, 723.553 531.237, 723.743 527.250 C 723.932 523.263, 723.932 516.737, 723.743 512.750 C 723.553 508.762, 723.397 512.025, 723.397 520 M 882.160 516.691 C 882.072 521.746, 882.337 526.092, 882.750 526.349 C 883.163 526.605, 883.376 523.819, 883.224 520.158 C 882.743 508.558, 882.325 507.197, 882.160 516.691 M 583.389 521.500 C 583.390 528.650, 583.550 531.444, 583.742 527.708 C 583.935 523.973, 583.934 518.123, 583.739 514.708 C 583.545 511.294, 583.387 514.350, 583.389 521.500 M 655.336 518 C 655.336 522.125, 655.513 523.813, 655.728 521.750 C 655.944 519.688, 655.944 516.313, 655.728 514.250 C 655.513 512.188, 655.336 513.875, 655.336 518"/><path fill-rule="evenodd" fill="#e2e6e4" stroke="none" d="M 251.550 411.848 C 252.072 412.314, 255.650 414.875, 259.500 417.537 C 264.404 420.929, 265.774 421.573, 264.076 419.689 C 262.742 418.210, 261.167 416.982, 260.576 416.959 C 259.984 416.937, 257.942 415.587, 256.038 413.959 C 254.134 412.332, 252.131 411, 251.588 411 C 250.967 411, 250.953 411.315, 251.550 411.848 M 275.036 428.333 C 275.841 429.066, 278.975 431.398, 282 433.515 C 287.422 437.310, 287.458 437.320, 284.563 434.183 C 282.948 432.432, 281.105 431, 280.468 431 C 279.831 431, 278.495 430.100, 277.500 429 C 276.505 427.900, 275.213 427, 274.631 427 C 274.048 427, 274.230 427.600, 275.036 428.333 M 195.852 437.250 C 195.423 444.940, 195.500 445.500, 196.980 445.500 C 198.116 445.500, 198.386 444.452, 198.138 441 C 197.696 434.844, 196.129 432.274, 195.852 437.250 M 245.995 436.207 C 244.623 437.319, 230.113 447.896, 213.750 459.712 L 184 481.195 184 524.026 C 184 561.630, 184.192 567.049, 185.571 568.429 C 186.436 569.293, 187.898 569.948, 188.821 569.884 C 190.339 569.779, 190.334 569.725, 188.772 569.315 C 187.176 568.896, 187.023 565.752, 186.772 528.181 C 186.622 505.806, 186.663 486.264, 186.863 484.754 C 187.145 482.620, 189.038 480.745, 195.363 476.337 C 199.838 473.217, 204.457 469.728, 205.628 468.582 C 210.166 464.140, 212.855 462.100, 223 455.400 C 228.775 451.586, 234.400 447.918, 235.500 447.249 C 236.600 446.579, 239.300 444.935, 241.500 443.594 C 245.986 440.859, 252.657 439.715, 252.250 441.750 C 252.113 442.438, 252.863 443, 253.918 443 C 254.974 443, 257.710 444.800, 260 447 C 262.290 449.200, 264.583 451, 265.097 451 C 265.610 451, 269.061 453.137, 272.765 455.750 C 276.469 458.363, 280.264 460.950, 281.198 461.500 C 284.687 463.554, 291.656 468.566, 296.357 472.402 C 299.028 474.582, 303.078 477.365, 305.357 478.586 L 309.500 480.807 309.743 496.154 C 309.877 504.594, 310.379 513.750, 310.860 516.500 L 311.733 521.500 311.866 516.750 C 311.940 514.138, 312.267 512, 312.592 512 C 312.918 512, 314.329 512.900, 315.727 514 C 318.913 516.506, 320.441 516.508, 324.476 514.015 L 327.689 512.029 331.002 516.152 C 333.223 518.916, 334.016 520.679, 333.408 521.498 C 328.989 527.445, 328.840 527.832, 330.079 530.183 C 331.716 533.291, 332.944 533.992, 336.500 533.849 C 338.718 533.759, 338.933 533.617, 337.323 533.304 C 333.036 532.469, 332.760 530.659, 335.985 524.528 C 338.932 518.927, 339 518.472, 339 504.457 C 339 495.977, 338.591 489.866, 338 489.500 C 337.351 489.099, 336.984 494.084, 336.955 503.691 L 336.910 518.500 332.427 513.500 L 327.943 508.500 323.988 510.770 L 320.034 513.040 316.529 510.770 L 313.025 508.500 313.012 498.329 L 313 488.159 326.250 487.571 C 333.538 487.247, 341.790 486.990, 344.588 486.999 C 348.513 487.012, 350.113 486.532, 351.588 484.900 C 353.486 482.800, 353.476 482.765, 350.223 480.047 C 348.420 478.541, 345.720 476.697, 344.223 475.950 C 342.725 475.203, 340.489 473.706, 339.254 472.625 C 338.019 471.544, 336.751 470.916, 336.437 471.230 C 336.123 471.544, 339.315 474.208, 343.531 477.150 L 351.195 482.500 333.541 482.773 L 315.886 483.047 295.693 468.224 C 272.171 450.959, 250.931 435.571, 249.495 434.756 C 248.942 434.442, 247.367 435.095, 245.995 436.207 M 290.083 439.309 C 295.288 443.163, 301.053 446.895, 300.553 446.086 C 299.763 444.808, 291.444 439, 290.403 439 C 289.998 439, 289.854 439.139, 290.083 439.309 M 304.464 449.282 C 311.354 454.438, 321 461.015, 321 460.558 C 321 460.066, 312.507 453.580, 306.206 449.259 C 301.966 446.352, 300.573 446.370, 304.464 449.282 M 236.868 459 C 236.521 460.375, 236.562 466.450, 236.959 472.500 C 237.412 479.402, 237.740 481.384, 237.840 477.820 C 237.982 472.785, 238.256 472.090, 240.250 471.706 L 242.500 471.272 240.294 471.136 C 238.264 471.011, 238.064 470.422, 237.794 463.750 C 237.611 459.246, 237.261 457.447, 236.868 459 M 272.500 462.931 C 274.209 464.886, 281.310 470.030, 287.090 473.500 C 288.007 474.050, 289.711 475.078, 290.878 475.785 C 292.045 476.492, 293 476.827, 293 476.529 C 293 476.231, 289.962 473.979, 286.250 471.525 C 282.538 469.071, 277.475 465.618, 275 463.853 C 271.648 461.461, 271.010 461.226, 272.500 462.931 M 250.185 476.750 L 250.370 482.500 250.735 477.305 L 251.101 472.110 255.300 471.730 L 259.500 471.349 254.750 471.175 L 250 471 250.185 476.750 M 388.672 498.636 C 392.271 507.911, 395.382 515.678, 395.586 515.895 C 395.790 516.113, 396.361 515.213, 396.855 513.895 C 397.464 512.273, 397.390 511.410, 396.627 511.221 C 395.415 510.920, 393 506.375, 393 504.395 C 393 503.356, 391.525 500.009, 387.875 492.764 C 387.394 491.809, 387 489.974, 387 488.688 C 387 487.401, 385.904 485.319, 384.564 484.061 C 382.479 482.102, 383.070 484.199, 388.672 498.636 M 421 507.800 L 421 534 416.917 534 C 414.098 534, 412.960 534.387, 413.244 535.250 C 413.867 537.147, 420.433 537.388, 421.943 535.569 C 423.620 533.548, 423.760 484.360, 422.093 482.693 C 421.302 481.902, 421 488.847, 421 507.800 M 680 485.878 L 680 490 668 490 L 656 490 656 496.500 C 656 501.951, 656.274 503, 657.700 503 C 659.022 503, 659.133 502.733, 658.200 501.800 C 657.540 501.140, 657 498.966, 657 496.969 C 657 494.112, 657.537 493.051, 659.520 491.989 C 661.456 490.953, 662.314 490.914, 663.220 491.820 C 663.921 492.521, 667.505 493, 672.045 493 C 678.181 493, 680.017 492.639, 681.345 491.171 C 683.408 488.892, 683.488 484.650, 681.500 483 C 680.208 481.928, 680 482.327, 680 485.878 M 769.571 484.324 C 769.932 485.266, 769.688 487.339, 769.028 488.931 C 767.841 491.797, 767.794 491.812, 764.322 490.361 C 759.635 488.403, 757.676 489.193, 761.941 491.321 C 766.300 493.495, 769.285 493.448, 771.345 491.171 C 773.549 488.735, 773.432 486.701, 770.957 484.461 C 769.142 482.818, 768.987 482.803, 769.571 484.324 M 240.768 484.725 C 242.565 484.947, 245.265 484.943, 246.768 484.715 C 248.271 484.486, 246.800 484.304, 243.500 484.310 C 240.200 484.315, 238.971 484.502, 240.768 484.725 M 558.044 490.250 C 558.011 493.825, 558.371 495, 559.500 495 C 561.340 495, 561.343 494.535, 559.529 489.500 L 558.088 485.500 558.044 490.250 M 142.441 489.532 C 144.766 491.291, 146.642 491.369, 150.896 489.886 C 153.577 488.952, 154.406 489.057, 156.046 490.541 C 157.927 492.244, 158 492.230, 158 490.155 C 158 488.110, 157.553 488.002, 149.250 488.032 C 141.338 488.061, 140.686 488.204, 142.441 489.532 M 749.034 489.752 C 743.342 492.623, 741.494 496.998, 741.537 507.500 C 741.577 517.318, 743.181 521.976, 747.260 524.116 L 749.500 525.291 747.529 523.072 C 746.444 521.852, 745.002 518.749, 744.323 516.177 C 740.897 503.198, 745.520 491, 753.864 491 C 754.904 491, 756.315 490.325, 757 489.500 C 758.057 488.226, 757.812 488, 755.372 488.002 C 753.793 488.002, 750.940 488.790, 749.034 489.752 M 243.500 493.632 C 250.663 494.375, 258.777 494.440, 258.348 493.750 C 258.092 493.337, 253.971 493.072, 249.191 493.160 C 244.411 493.248, 241.850 493.460, 243.500 493.632 M 265 497.182 C 270.534 499.863, 289.543 518.971, 291.619 523.940 C 293.447 528.314, 296.833 532.021, 298.924 531.937 C 299.978 531.894, 299.791 531.587, 298.359 531.009 C 297.182 530.534, 294.975 527.605, 293.456 524.500 C 291.660 520.829, 287.336 515.427, 281.097 509.059 C 270.418 498.159, 266.316 495, 262.846 495.001 C 261.043 495.001, 261.541 495.506, 265 497.182 M 497.102 497.270 C 501.750 500.375, 503.997 505.255, 503.998 512.250 L 504 518 491.500 518 C 484.245 518, 479 518.400, 479 518.953 C 479 520.724, 481.263 524.887, 482.479 525.354 C 483.286 525.663, 483.535 525.017, 483.227 523.409 L 482.767 521 492.815 521 C 502.765 521, 502.884 520.972, 504.932 518.096 C 507.144 514.989, 507.633 511.509, 506 510.500 C 505.450 510.160, 505 508.144, 505 506.019 C 505 502.722, 504.388 501.632, 500.820 498.578 C 498.521 496.610, 495.979 495, 495.172 495 C 494.365 495, 495.233 496.021, 497.102 497.270 M 629.696 496.956 C 633.949 499.549, 635.812 502.598, 637.207 509.251 C 638.599 515.887, 637.095 524.338, 633.771 528.565 C 627.726 536.249, 613.197 537.085, 605.750 530.177 C 604.237 528.774, 603 528.076, 603 528.626 C 603 529.794, 607.510 533.947, 610.736 535.750 C 613.935 537.538, 626.011 537.340, 629.825 535.437 C 638.174 531.272, 641.723 521.194, 639.456 508.086 C 638.867 504.679, 637.660 502.682, 634.167 499.336 C 631.679 496.951, 628.935 495.002, 628.071 495.004 C 627.195 495.006, 627.914 495.870, 629.696 496.956 M 718.771 495.669 C 719.470 495.951, 720.804 497.603, 721.735 499.340 C 723.062 501.815, 723.513 505.916, 723.819 518.250 L 724.210 534 719.482 534 C 715.394 534, 714.923 534.203, 716 535.500 C 717.736 537.591, 723.333 537.395, 725.345 535.171 C 727.152 533.175, 727.604 526.492, 726 525.500 C 725.426 525.145, 725 519.938, 725 513.285 C 725 502.395, 724.845 501.485, 722.449 498.344 C 721.046 496.505, 719.359 495.036, 718.699 495.079 C 717.842 495.135, 717.863 495.304, 718.771 495.669 M 804.234 497.916 L 807.500 500.831 807.836 513.166 C 808.090 522.485, 808.518 525.695, 809.586 526.300 C 810.377 526.747, 811 528.620, 811 530.550 C 811 533.826, 810.824 534, 807.500 534 C 805.388 534, 803.242 533.242, 802.090 532.090 C 800.211 530.211, 800.106 530.219, 795.421 532.590 C 792.803 533.916, 789.343 535, 787.732 535 C 783.259 535, 778.356 532.212, 776.613 528.679 C 775.304 526.023, 775.042 525.858, 775.023 527.672 C 775.009 529.002, 776.620 531.231, 779.180 533.422 C 782.926 536.628, 783.959 537, 789.121 537 C 792.290 537, 795.160 536.550, 795.500 536 C 795.840 535.450, 797.865 535, 800 535 C 802.135 535, 804.160 535.450, 804.500 536 C 805.420 537.489, 809.751 537.209, 812.371 535.492 C 814.718 533.955, 820.482 534.353, 821.580 536.129 C 821.876 536.608, 825.835 537, 830.379 537 C 838.387 537, 838.766 536.892, 842.761 533.472 C 845.028 531.532, 847.167 529.050, 847.513 527.958 C 847.860 526.865, 848.562 526.229, 849.072 526.544 C 850.371 527.347, 850.262 526.846, 848.052 521.850 C 846.980 519.428, 844.871 516.333, 843.364 514.973 L 840.624 512.500 842.812 515.385 C 847.898 522.092, 844.211 531.789, 835.702 534.080 C 828.912 535.908, 814.277 532.669, 815.311 529.566 C 815.503 528.991, 814.611 527.696, 813.330 526.688 C 811.294 525.086, 811 523.988, 811 517.986 C 811 514.209, 810.550 510.840, 810 510.500 C 809.450 510.160, 809 507.743, 809 505.128 C 809 501.225, 808.498 499.893, 806.195 497.687 C 804.653 496.209, 802.846 495, 802.180 495 C 801.513 495, 802.438 496.312, 804.234 497.916 M 877.633 496.772 C 881.319 499.758, 882.267 503.063, 882.781 514.725 C 883.056 520.957, 883.668 526.295, 884.141 526.587 C 884.613 526.879, 885 528.666, 885 530.559 C 885 533.680, 884.733 534, 882.135 534 C 880.559 534, 878.097 533.077, 876.663 531.949 L 874.056 529.899 871.015 532.147 C 866.707 535.332, 858.348 535.368, 854.086 532.220 C 852.389 530.966, 851 530.334, 851 530.815 C 851 531.809, 853.439 533.907, 856.736 535.750 C 859.283 537.174, 869.603 537.452, 870.426 536.119 C 871.505 534.374, 876.411 534.248, 880.745 535.854 C 885.001 537.432, 885.221 537.418, 886.639 535.497 C 888.173 533.416, 887.741 527.424, 885.922 525.550 C 885.415 525.027, 885 519.821, 885 513.980 L 885 503.360 881.422 499.180 C 879.454 496.881, 877.317 495.010, 876.672 495.022 C 876.027 495.034, 876.460 495.822, 877.633 496.772 M 598.086 497.668 C 597.937 501.421, 596.863 503, 594.458 503 C 591.359 503, 587.689 504.454, 585.655 506.488 C 584.286 507.857, 584 510.374, 584 521.071 L 584 534 579.250 534.032 C 574.856 534.061, 574.645 534.174, 576.441 535.532 C 578.737 537.269, 583.590 537.473, 584.577 535.875 C 584.960 535.256, 585.198 529.665, 585.107 523.452 C 585.007 516.604, 585.347 511.904, 585.971 511.518 C 586.537 511.168, 587 510.009, 587 508.941 C 587 507.765, 587.690 506.994, 588.750 506.985 C 591.751 506.959, 598.233 504.334, 599.094 502.797 C 599.546 501.990, 599.523 500.018, 599.044 498.415 C 598.344 496.075, 598.155 495.928, 598.086 497.668 M 379.079 515.250 L 379 534 374.500 534 L 370 534 369.777 517.250 L 369.553 500.500 369.251 516.893 C 368.905 535.684, 369.354 537, 376.108 537 C 379.487 537, 380.095 536.602, 381.616 533.396 C 383.030 530.417, 383.125 529.234, 382.163 526.575 C 381.523 524.806, 381 521.724, 381 519.726 C 381 515.585, 382.864 510.798, 384.164 511.601 C 384.890 512.050, 383.638 508.206, 379.732 498 C 379.416 497.175, 379.122 504.938, 379.079 515.250 M 405.501 512.664 C 401.659 522.487, 398.963 528.054, 398.001 528.151 C 397.176 528.234, 395.213 528.198, 393.640 528.072 C 390.011 527.781, 390.498 529.999, 394.345 531.282 C 398.270 532.590, 401.290 530.211, 404.495 523.287 C 405.968 520.104, 407.585 516.719, 408.087 515.764 C 408.589 514.809, 409 512.928, 409 511.585 C 409 510.242, 409.700 508.443, 410.555 507.587 C 411.605 506.538, 412.012 504.616, 411.805 501.680 C 411.513 497.506, 411.254 497.956, 405.501 512.664 M 459.678 500.250 C 460.921 502.585, 461.518 506.597, 461.800 514.500 C 462.016 520.550, 462.599 525.928, 463.096 526.450 C 464.237 527.649, 464.283 533.707, 463.156 534.403 C 461.804 535.239, 454.939 533.004, 454.379 531.545 C 453.988 530.527, 452.813 530.804, 449.370 532.728 C 443.271 536.137, 436.284 535.603, 431.885 531.392 L 428.863 528.500 430.317 531.306 C 432.683 535.872, 434.909 536.934, 442.191 536.968 C 445.871 536.986, 449.160 536.550, 449.500 536 C 449.840 535.450, 451.640 535, 453.500 535 C 455.360 535, 457.160 535.450, 457.500 536 C 458.525 537.659, 463.577 537.125, 465.345 535.171 C 467.186 533.137, 467.443 530.849, 466.123 528.236 C 463.983 524.001, 463.158 518.858, 463.240 510.260 C 463.312 502.648, 463.007 500.665, 461.509 499.010 C 458.733 495.942, 457.743 496.613, 459.678 500.250 M 537.652 499.750 C 536.727 504.004, 535.399 505.575, 533.826 504.275 C 533.097 503.672, 530.815 502.864, 528.757 502.479 C 521.737 501.168, 517.608 503.761, 520.519 507.653 C 521.848 509.428, 521.963 509.413, 523.507 507.250 C 525.201 504.878, 531.284 504.032, 532.500 506 C 533.400 507.457, 536.240 507.226, 539.905 505.398 C 542.881 503.913, 543.256 503.922, 545.018 505.517 C 546.499 506.857, 546.995 508.928, 547.259 514.869 C 547.586 522.248, 547.604 522.178, 547.799 512.750 L 548 503 545 503 C 542.778 503, 542 502.533, 542 501.200 C 542 499.419, 540.229 497, 538.925 497 C 538.554 497, 537.981 498.238, 537.652 499.750 M 567.836 500.122 C 567.544 502.192, 566.885 502.539, 562.750 502.805 L 558 503.110 558 514.020 C 558 523.783, 558.203 525.038, 559.934 525.965 C 562.533 527.356, 563.458 527.270, 562.259 525.750 C 561.717 525.063, 561.002 520.804, 560.671 516.287 C 560.011 507.289, 560.973 505, 565.416 505 C 566.667 505, 568.517 504.086, 569.528 502.969 C 571.212 501.109, 571.232 500.803, 569.769 499.341 C 568.307 497.878, 568.144 497.944, 567.836 500.122 M 842.995 501.011 C 841.945 503.547, 841.289 504.026, 839.597 503.493 C 838.444 503.130, 835.181 502.594, 832.347 502.301 C 827.873 501.839, 827.050 502.038, 826.099 503.815 C 825.230 505.438, 825.365 506.224, 826.752 507.618 C 828.419 509.292, 828.515 509.272, 828.820 507.187 C 828.995 505.984, 829.895 504.956, 830.820 504.902 C 831.744 504.848, 835.372 504.736, 838.882 504.652 C 843.730 504.537, 845.529 504.084, 846.365 502.769 C 847.212 501.438, 847.100 500.671, 845.882 499.453 C 844.436 498.007, 844.183 498.143, 842.995 501.011 M 437.716 503.564 C 435.085 504.398, 433.199 505.512, 433.525 506.040 C 434.325 507.335, 439.338 507.262, 440.664 505.936 C 441.249 505.351, 443.700 505.013, 446.109 505.186 C 450.071 505.470, 450.551 505.787, 451.127 508.500 L 451.763 511.500 451.882 508.372 C 451.947 506.652, 451.365 504.718, 450.589 504.074 C 448.285 502.162, 442.824 501.946, 437.716 503.564 M 483.229 502.669 C 481.884 503.210, 479 508.176, 479 509.950 C 479 510.528, 479.900 511, 481 511 C 482.259 511, 483 510.333, 483 509.200 C 483 508.210, 483.540 506.860, 484.200 506.200 C 485.783 504.617, 492.694 504.654, 493.338 506.250 C 493.703 507.155, 493.864 507.171, 493.921 506.307 C 494.113 503.411, 487.217 501.065, 483.229 502.669 M 613.535 504.374 C 608.607 509.302, 609.503 522.427, 615 525.852 L 617.500 527.409 615.250 524.890 C 613.405 522.824, 613 521.199, 613 515.860 C 613 510.347, 613.355 509.015, 615.314 507.174 C 618.106 504.552, 622.621 504.360, 625.317 506.750 C 627.231 508.447, 627.256 508.433, 626.123 506.273 C 623.637 501.535, 617.326 500.583, 613.535 504.374 M 702.775 503.559 C 701.276 504.372, 699.589 505.900, 699.025 506.953 C 698.461 508.007, 698 514.523, 698 521.434 L 698 534 693.878 534 C 690.327 534, 689.928 534.208, 691 535.500 C 692.714 537.565, 697.343 537.383, 699.345 535.171 C 700.704 533.670, 701 531.049, 701 520.532 C 701 509.503, 701.244 507.536, 702.750 506.392 C 705.586 504.239, 710.658 504.674, 712.443 507.223 C 713.723 509.049, 714 509.138, 714 507.723 C 714 505.266, 710.400 501.993, 707.750 502.040 C 706.513 502.062, 704.274 502.746, 702.775 503.559 M 783 503.582 C 779.547 504.993, 779.592 505.007, 786.313 504.616 C 795.110 504.105, 796.794 504.601, 797.294 507.852 C 797.657 510.219, 797.716 510.159, 797.850 507.285 C 797.955 505.028, 797.424 503.762, 796.066 503.035 C 793.398 501.608, 787.197 501.867, 783 503.582 M 853.259 503 C 853.574 504.150, 855.456 504.533, 861.331 504.642 C 870.534 504.811, 871.714 505.194, 872.286 508.189 L 872.728 510.500 872.864 508.250 C 873.185 502.939, 867.097 500.735, 858.612 503.091 C 855.550 503.941, 854.524 503.886, 853.786 502.835 C 853.039 501.773, 852.932 501.806, 853.259 503 M 677 506.917 L 677 511 666.500 511 L 656 511 656 518.500 L 656 526 667.750 525.789 L 679.500 525.578 669.395 525.256 C 659.646 524.945, 659.249 524.843, 658.117 522.357 C 657.146 520.226, 657.259 519.240, 658.775 516.641 C 660.577 513.550, 660.742 513.495, 669.182 513.213 C 676.249 512.976, 678.075 512.575, 679.561 510.933 C 680.966 509.380, 681.159 508.356, 680.432 506.301 C 678.889 501.933, 677 502.272, 677 506.917 M 222.500 507.523 C 219.750 508.287, 216.461 508.932, 215.191 508.956 C 213.914 508.980, 213.158 509.447, 213.500 510 C 213.840 510.550, 216.990 511, 220.500 511 C 224.010 511, 227.160 510.550, 227.500 510 C 227.840 509.450, 230.765 509, 234 509 C 237.235 509, 240.160 509.450, 240.500 510 C 240.840 510.550, 241.957 511, 242.982 511 C 244.007 511, 246.229 512.383, 247.920 514.074 C 249.933 516.087, 250.770 516.519, 250.345 515.324 C 247.525 507.397, 235.294 503.971, 222.500 507.523 M 573.385 521 C 573.385 527.875, 573.545 530.688, 573.740 527.250 C 573.936 523.813, 573.936 518.188, 573.740 514.750 C 573.545 511.313, 573.385 514.125, 573.385 521 M 511 512.754 C 511 513.361, 512.516 515.465, 514.368 517.429 C 517.263 520.498, 518.370 521, 522.246 521 C 527.634 521, 530.009 522.985, 527.927 525.750 C 526.700 527.380, 526.742 527.379, 528.538 525.731 C 531.398 523.108, 529.474 520.921, 521.905 518.192 C 518.385 516.922, 514.491 514.931, 513.252 513.767 C 512.014 512.604, 511 512.148, 511 512.754 M 534.225 513.516 C 537.663 515.436, 539 517.920, 539 522.387 C 539 527.577, 537.074 530.921, 532.843 533.080 C 528.422 535.336, 520.307 535.557, 514.750 533.574 C 510.664 532.116, 509.968 532.756, 512.829 535.345 C 514.247 536.629, 516.690 537, 523.714 537 C 536.098 537, 539.849 534.889, 541.360 527.069 C 542.755 519.844, 539.859 513.744, 534.500 512.622 L 531.500 511.994 534.225 513.516 M 819 515.001 C 819 516.292, 823.790 518.996, 826.215 519.073 C 829.599 519.181, 834.524 522.449, 834.343 524.467 C 834.227 525.769, 834.475 525.925, 835.321 525.079 C 836.591 523.809, 835.396 521.194, 832.933 519.854 C 829.394 517.929, 819 514.309, 819 515.001 M 790.413 516.943 C 788.715 517.349, 786.802 518.004, 786.163 518.399 C 784.641 519.340, 784.666 524.266, 786.200 525.800 C 787.951 527.551, 789.469 527.270, 787.976 525.471 C 786.922 524.201, 787.113 523.509, 789.103 521.390 C 790.941 519.434, 792.257 518.928, 794.750 519.219 C 797.353 519.523, 798 519.240, 798 517.799 C 798 515.857, 795.930 515.624, 790.413 516.943 M 864.225 516.709 C 859.603 517.596, 857.584 524.859, 861.538 526.376 C 862.606 526.786, 863 526.183, 863 524.138 C 863 520.805, 866.516 518.483, 870.428 519.231 C 872.446 519.617, 873 519.321, 873 517.861 C 873 515.969, 870.080 515.585, 864.225 516.709 M 441.185 517.684 C 437.550 519.138, 437.949 527, 441.658 527 C 443.007 527, 443.043 526.757, 441.902 525.382 C 440.741 523.983, 440.961 523.439, 443.529 521.364 C 447.185 518.411, 450.186 518.663, 451.109 522 C 451.700 524.136, 451.815 523.954, 451.900 520.750 L 452 517 447.250 517.079 C 444.637 517.122, 441.908 517.395, 441.185 517.684 M 312.104 524.500 C 312.802 526.150, 314.586 528.850, 316.067 530.500 C 319.806 534.665, 321 537.297, 321 541.375 C 321 543.304, 321.521 545.204, 322.157 545.597 C 324.090 546.792, 322.335 537.592, 319.613 532.256 C 318.279 529.640, 315.757 526.150, 314.011 524.500 L 310.835 521.500 312.104 524.500 M 769 523.359 C 769 523.726, 769.521 524.861, 770.158 525.881 C 770.795 526.901, 771.051 528.426, 770.727 529.270 C 769.945 531.307, 759.903 535, 755.144 535 C 749.334 535, 741.524 532.292, 738.094 529.088 C 736.392 527.498, 735.010 526.716, 735.022 527.349 C 735.058 529.224, 738.281 532.487, 741.500 533.908 C 743.150 534.637, 745.281 535.631, 746.236 536.117 C 748.886 537.464, 764.690 537.189, 767.264 535.750 C 773.422 532.308, 774.856 527.990, 771 524.500 C 769.900 523.505, 769 522.991, 769 523.359 M 680.838 529.428 L 681.201 534 663.978 534 C 648.782 534, 646.902 534.177, 648 535.500 C 649.007 536.713, 652.157 537, 664.476 537 C 679.258 537, 679.786 536.928, 682.354 534.548 C 685.564 531.572, 685.583 531.241, 682.732 527.678 L 680.474 524.857 680.838 529.428 M 471.005 527.346 C 471.002 527.811, 471.911 529.471, 473.025 531.035 C 476.371 535.734, 480.187 537.003, 490.904 536.978 C 502.145 536.952, 505.410 535.435, 504.834 530.509 C 504.650 528.939, 503.973 527.481, 503.329 527.270 C 502.585 527.026, 502.353 527.636, 502.695 528.940 C 503.952 533.750, 487.611 536.911, 479.218 533.481 C 477.173 532.645, 474.490 530.733, 473.255 529.231 C 472.020 527.729, 471.008 526.881, 471.005 527.346 M 568.032 531.189 C 568.003 533.608, 567.542 533.946, 563.430 534.563 C 560.261 535.038, 557.654 534.775, 554.930 533.705 C 550.548 531.983, 549.697 532.916, 553.422 535.357 C 556.992 537.696, 566.478 537.783, 569.001 535.499 C 571.391 533.337, 571.431 532.952, 569.532 530.441 C 568.123 528.578, 568.062 528.609, 568.032 531.189 M 308.381 536.152 L 314.161 541.303 304.349 551.152 C 298.953 556.568, 293.957 561, 293.246 561 C 292.536 561, 289.951 559.153, 287.502 556.895 C 283.143 552.877, 283.081 552.856, 284.585 555.870 C 286.214 559.135, 290.023 562.279, 293.753 563.437 C 295.586 564.006, 297.093 563.099, 301.843 558.568 C 305.054 555.506, 308.168 553, 308.762 553 C 310.558 553, 317 544.794, 317 542.507 C 317 540.027, 313.109 536.080, 307.720 533.094 C 301.939 529.892, 302.078 530.534, 308.381 536.152 M 342.481 537.500 C 344.093 545.265, 344.314 544.652, 339.404 546.027 C 336.074 546.959, 334.574 547.989, 333.877 549.824 C 332.559 553.290, 333.074 554.991, 336 556.846 L 338.500 558.432 336.586 556.206 C 334.909 554.255, 334.837 553.673, 336.005 551.490 C 336.932 549.759, 338.180 549, 340.101 549 C 342.009 549, 343.503 548.102, 344.932 546.096 C 347.422 542.599, 347.520 540.724, 345.385 537.465 C 343.302 534.286, 341.817 534.304, 342.481 537.500 M 265.817 541.783 C 264.341 542.756, 252.191 554.689, 238.817 568.301 C 225.442 581.912, 214.024 593.038, 213.441 593.024 C 210.410 592.954, 208.699 590.090, 208 583.913 L 207.274 577.500 207.137 583.096 C 206.978 589.584, 209.197 595, 212.014 595 C 213.041 595, 214.160 595.450, 214.500 596 C 214.840 596.550, 216.640 597, 218.500 597 C 220.360 597, 222.160 597.450, 222.500 598 C 222.850 598.567, 227.793 599, 233.905 599 C 246.365 599, 248.375 598.282, 255 591.467 C 257.475 588.921, 260.762 585.926, 262.304 584.812 C 264.987 582.875, 265.191 582.863, 267.054 584.549 C 268.913 586.232, 269 586.230, 269 584.515 C 269 582.656, 266.347 580.087, 264.368 580.032 C 263.746 580.014, 259.250 583.600, 254.376 588 L 245.515 596 232.758 596 C 225.741 596, 220 595.663, 220 595.250 C 219.999 594.837, 222.362 592.366, 225.250 589.758 C 228.137 587.150, 229.600 585.325, 228.500 585.703 C 225.992 586.565, 238.165 573.249, 248.650 563.660 C 253.814 558.938, 255.838 557.521, 254.596 559.500 L 252.712 562.500 255.312 560.117 C 256.742 558.807, 257.825 557.457, 257.720 557.117 C 257.340 555.894, 265.751 545.470, 268.156 544.183 C 269.510 543.459, 272.613 543.009, 275.052 543.183 C 278.783 543.450, 279.699 543.947, 280.833 546.326 C 282.475 549.766, 283.533 549.264, 281.952 545.794 C 279.506 540.426, 271.059 538.326, 265.817 541.783 M 262.863 560.732 C 264.918 564.760, 271.990 571.866, 276.106 574.039 C 277.423 574.735, 276.140 573.171, 273.255 570.564 C 270.370 567.957, 267.274 564.273, 266.375 562.377 C 265.475 560.482, 263.874 558.468, 262.817 557.902 C 260.937 556.896, 260.938 556.959, 262.863 560.732 M 339.383 566.054 C 337.755 570.584, 337.317 571.045, 335.166 570.506 C 328.271 568.775, 327.503 568.835, 325.195 571.293 L 322.898 573.737 325.198 578.471 L 327.498 583.205 323.499 586.588 C 321.300 588.448, 319.178 589.977, 318.785 589.985 C 318.391 589.993, 316.510 588.631, 314.604 586.958 C 311.202 583.970, 311.073 583.943, 307.493 585.439 C 303.951 586.918, 303.855 587.098, 304.138 591.694 C 304.401 595.985, 304.198 596.491, 301.964 597.114 C 300.609 597.491, 297.982 597.845, 296.128 597.900 C 293.248 597.985, 292.937 598.219, 294 599.500 C 294.747 600.400, 296.934 601, 299.467 601 C 304.635 601, 307 598.748, 307 593.826 C 307 591.690, 307.718 589.661, 308.829 588.655 C 311.150 586.554, 311.929 586.598, 315 589 C 318.291 591.575, 325.085 591.669, 327.345 589.171 C 329.217 587.103, 329.532 582.932, 327.937 581.337 C 326.112 579.512, 326.518 574.078, 328.597 572.504 C 330.848 570.800, 332.644 570.616, 333.500 572 C 334.525 573.659, 339.577 573.125, 341.345 571.171 C 343.090 569.243, 343.703 561, 342.100 561 C 341.606 561, 340.383 563.274, 339.383 566.054 M 184.500 583 C 175.338 592.190, 173.033 594, 170.490 594 C 166.771 594, 163.455 591.794, 160.918 587.633 C 158.713 584.017, 158.314 585.450, 160.404 589.479 C 162.048 592.646, 168.062 597, 170.793 597 C 171.838 597, 174.010 596.343, 175.620 595.539 C 179.007 593.850, 198 574.840, 198 573.140 C 198 570.350, 194.731 572.737, 184.500 583 M 280.275 592.430 L 277.599 596.859 274.178 595.430 C 269.524 593.486, 269.281 593.605, 272 596.500 C 275.415 600.135, 278.342 599.701, 282.120 595 C 285.411 590.905, 287.678 590.078, 289.800 592.200 C 291.274 593.674, 291.357 592.535, 289.965 589.934 C 289.296 588.684, 287.872 588, 285.940 588 C 283.474 588, 282.483 588.775, 280.275 592.430"/><path fill-rule="evenodd" fill="#e2e6e4" stroke="none" d="M 251.550 411.848 C 252.072 412.314, 255.650 414.875, 259.500 417.537 C 264.404 420.929, 265.774 421.573, 264.076 419.689 C 262.742 418.210, 261.167 416.982, 260.576 416.959 C 259.984 416.937, 257.942 415.587, 256.038 413.959 C 254.134 412.332, 252.131 411, 251.588 411 C 250.967 411, 250.953 411.315, 251.550 411.848 M 275.036 428.333 C 275.841 429.066, 278.975 431.398, 282 433.515 C 287.422 437.310, 287.458 437.320, 284.563 434.183 C 282.948 432.432, 281.105 431, 280.468 431 C 279.831 431, 278.495 430.100, 277.500 429 C 276.505 427.900, 275.213 427, 274.631 427 C 274.048 427, 274.230 427.600, 275.036 428.333 M 195.852 437.250 C 195.423 444.940, 195.500 445.500, 196.980 445.500 C 198.116 445.500, 198.386 444.452, 198.138 441 C 197.696 434.844, 196.129 432.274, 195.852 437.250 M 245.995 436.207 C 244.623 437.319, 230.113 447.896, 213.750 459.712 L 184 481.195 184 524.026 C 184 561.630, 184.192 567.049, 185.571 568.429 C 186.436 569.293, 187.898 569.948, 188.821 569.884 C 190.339 569.779, 190.334 569.725, 188.772 569.315 C 187.176 568.896, 187.023 565.752, 186.772 528.181 C 186.622 505.806, 186.663 486.264, 186.863 484.754 C 187.145 482.620, 189.038 480.745, 195.363 476.337 C 199.838 473.217, 204.457 469.728, 205.628 468.582 C 210.166 464.140, 212.855 462.100, 223 455.400 C 228.775 451.586, 234.400 447.918, 235.500 447.249 C 236.600 446.579, 239.300 444.935, 241.500 443.594 C 245.986 440.859, 252.657 439.715, 252.250 441.750 C 252.113 442.438, 252.863 443, 253.918 443 C 254.974 443, 257.710 444.800, 260 447 C 262.290 449.200, 264.583 451, 265.097 451 C 265.610 451, 269.061 453.137, 272.765 455.750 C 276.469 458.363, 280.264 460.950, 281.198 461.500 C 284.687 463.554, 291.656 468.566, 296.357 472.402 C 299.028 474.582, 303.078 477.365, 305.357 478.586 L 309.500 480.807 309.743 496.154 C 309.877 504.594, 310.379 513.750, 310.860 516.500 L 311.733 521.500 311.866 516.750 C 311.940 514.138, 312.267 512, 312.592 512 C 312.918 512, 314.329 512.900, 315.727 514 C 318.913 516.506, 320.441 516.508, 324.476 514.015 L 327.689 512.029 331.002 516.152 C 333.223 518.916, 334.016 520.679, 333.408 521.498 C 328.989 527.445, 328.840 527.832, 330.079 530.183 C 331.716 533.291, 332.944 533.992, 336.500 533.849 C 338.718 533.759, 338.933 533.617, 337.323 533.304 C 333.036 532.469, 332.760 530.659, 335.985 524.528 C 338.932 518.927, 339 518.472, 339 504.457 C 339 495.977, 338.591 489.866, 338 489.500 C 337.351 489.099, 336.984 494.084, 336.955 503.691 L 336.910 518.500 332.427 513.500 L 327.943 508.500 323.988 510.770 L 320.034 513.040 316.529 510.770 L 313.025 508.500 313.012 498.329 L 313 488.159 326.250 487.571 C 333.538 487.247, 341.790 486.990, 344.588 486.999 C 348.513 487.012, 350.113 486.532, 351.588 484.900 C 353.486 482.800, 353.476 482.765, 350.223 480.047 C 348.420 478.541, 345.720 476.697, 344.223 475.950 C 342.725 475.203, 340.489 473.706, 339.254 472.625 C 338.019 471.544, 336.751 470.916, 336.437 471.230 C 336.123 471.544, 339.315 474.208, 343.531 477.150 L 351.195 482.500 333.541 482.773 L 315.886 483.047 295.693 468.224 C 272.171 450.959, 250.931 435.571, 249.495 434.756 C 248.942 434.442, 247.367 435.095, 245.995 436.207 M 290.083 439.309 C 295.288 443.163, 301.053 446.895, 300.553 446.086 C 299.763 444.808, 291.444 439, 290.403 439 C 289.998 439, 289.854 439.139, 290.083 439.309 M 304.464 449.282 C 311.354 454.438, 321 461.015, 321 460.558 C 321 460.066, 312.507 453.580, 306.206 449.259 C 301.966 446.352, 300.573 446.370, 304.464 449.282 M 236.868 459 C 236.521 460.375, 236.562 466.450, 236.959 472.500 C 237.412 479.402, 237.740 481.384, 237.840 477.820 C 237.982 472.785, 238.256 472.090, 240.250 471.706 L 242.500 471.272 240.294 471.136 C 238.264 471.011, 238.064 470.422, 237.794 463.750 C 237.611 459.246, 237.261 457.447, 236.868 459 M 272.500 462.931 C 274.209 464.886, 281.310 470.030, 287.090 473.500 C 288.007 474.050, 289.711 475.078, 290.878 475.785 C 292.045 476.492, 293 476.827, 293 476.529 C 293 476.231, 289.962 473.979, 286.250 471.525 C 282.538 469.071, 277.475 465.618, 275 463.853 C 271.648 461.461, 271.010 461.226, 272.500 462.931 M 250.185 476.750 L 250.370 482.500 250.735 477.305 L 251.101 472.110 255.300 471.730 L 259.500 471.349 254.750 471.175 L 250 471 250.185 476.750 M 388.672 498.636 C 392.271 507.911, 395.382 515.678, 395.586 515.895 C 395.790 516.113, 396.361 515.213, 396.855 513.895 C 397.464 512.273, 397.390 511.410, 396.627 511.221 C 395.415 510.920, 393 506.375, 393 504.395 C 393 503.356, 391.525 500.009, 387.875 492.764 C 387.394 491.809, 387 489.974, 387 488.688 C 387 487.401, 385.904 485.319, 384.564 484.061 C 382.479 482.102, 383.070 484.199, 388.672 498.636 M 421 507.800 L 421 534 416.917 534 C 414.098 534, 412.960 534.387, 413.244 535.250 C 413.867 537.147, 420.433 537.388, 421.943 535.569 C 423.620 533.548, 423.760 484.360, 422.093 482.693 C 421.302 481.902, 421 488.847, 421 507.800 M 680 485.878 L 680 490 668 490 L 656 490 656 496.500 C 656 501.951, 656.274 503, 657.700 503 C 659.022 503, 659.133 502.733, 658.200 501.800 C 657.540 501.140, 657 498.966, 657 496.969 C 657 494.112, 657.537 493.051, 659.520 491.989 C 661.456 490.953, 662.314 490.914, 663.220 491.820 C 663.921 492.521, 667.505 493, 672.045 493 C 678.181 493, 680.017 492.639, 681.345 491.171 C 683.408 488.892, 683.488 484.650, 681.500 483 C 680.208 481.928, 680 482.327, 680 485.878 M 769.571 484.324 C 769.932 485.266, 769.688 487.339, 769.028 488.931 C 767.841 491.797, 767.794 491.812, 764.322 490.361 C 759.635 488.403, 757.676 489.193, 761.941 491.321 C 766.300 493.495, 769.285 493.448, 771.345 491.171 C 773.549 488.735, 773.432 486.701, 770.957 484.461 C 769.142 482.818, 768.987 482.803, 769.571 484.324 M 240.768 484.725 C 242.565 484.947, 245.265 484.943, 246.768 484.715 C 248.271 484.486, 246.800 484.304, 243.500 484.310 C 240.200 484.315, 238.971 484.502, 240.768 484.725 M 558.044 490.250 C 558.011 493.825, 558.371 495, 559.500 495 C 561.340 495, 561.343 494.535, 559.529 489.500 L 558.088 485.500 558.044 490.250 M 142.441 489.532 C 144.766 491.291, 146.642 491.369, 150.896 489.886 C 153.577 488.952, 154.406 489.057, 156.046 490.541 C 157.927 492.244, 158 492.230, 158 490.155 C 158 488.110, 157.553 488.002, 149.250 488.032 C 141.338 488.061, 140.686 488.204, 142.441 489.532 M 749.034 489.752 C 743.342 492.623, 741.494 496.998, 741.537 507.500 C 741.577 517.318, 743.181 521.976, 747.260 524.116 L 749.500 525.291 747.529 523.072 C 746.444 521.852, 745.002 518.749, 744.323 516.177 C 740.897 503.198, 745.520 491, 753.864 491 C 754.904 491, 756.315 490.325, 757 489.500 C 758.057 488.226, 757.812 488, 755.372 488.002 C 753.793 488.002, 750.940 488.790, 749.034 489.752 M 243.500 493.632 C 250.663 494.375, 258.777 494.440, 258.348 493.750 C 258.092 493.337, 253.971 493.072, 249.191 493.160 C 244.411 493.248, 241.850 493.460, 243.500 493.632 M 265 497.182 C 270.534 499.863, 289.543 518.971, 291.619 523.940 C 293.447 528.314, 296.833 532.021, 298.924 531.937 C 299.978 531.894, 299.791 531.587, 298.359 531.009 C 297.182 530.534, 294.975 527.605, 293.456 524.500 C 291.660 520.829, 287.336 515.427, 281.097 509.059 C 270.418 498.159, 266.316 495, 262.846 495.001 C 261.043 495.001, 261.541 495.506, 265 497.182 M 497.102 497.270 C 501.750 500.375, 503.997 505.255, 503.998 512.250 L 504 518 491.500 518 C 484.245 518, 479 518.400, 479 518.953 C 479 520.724, 481.263 524.887, 482.479 525.354 C 483.286 525.663, 483.535 525.017, 483.227 523.409 L 482.767 521 492.815 521 C 502.765 521, 502.884 520.972, 504.932 518.096 C 507.144 514.989, 507.633 511.509, 506 510.500 C 505.450 510.160, 505 508.144, 505 506.019 C 505 502.722, 504.388 501.632, 500.820 498.578 C 498.521 496.610, 495.979 495, 495.172 495 C 494.365 495, 495.233 496.021, 497.102 497.270 M 629.696 496.956 C 633.949 499.549, 635.812 502.598, 637.207 509.251 C 638.599 515.887, 637.095 524.338, 633.771 528.565 C 627.726 536.249, 613.197 537.085, 605.750 530.177 C 604.237 528.774, 603 528.076, 603 528.626 C 603 529.794, 607.510 533.947, 610.736 535.750 C 613.935 537.538, 626.011 537.340, 629.825 535.437 C 638.174 531.272, 641.723 521.194, 639.456 508.086 C 638.867 504.679, 637.660 502.682, 634.167 499.336 C 631.679 496.951, 628.935 495.002, 628.071 495.004 C 627.195 495.006, 627.914 495.870, 629.696 496.956 M 718.771 495.669 C 719.470 495.951, 720.804 497.603, 721.735 499.340 C 723.062 501.815, 723.513 505.916, 723.819 518.250 L 724.210 534 719.482 534 C 715.394 534, 714.923 534.203, 716 535.500 C 717.736 537.591, 723.333 537.395, 725.345 535.171 C 727.152 533.175, 727.604 526.492, 726 525.500 C 725.426 525.145, 725 519.938, 725 513.285 C 725 502.395, 724.845 501.485, 722.449 498.344 C 721.046 496.505, 719.359 495.036, 718.699 495.079 C 717.842 495.135, 717.863 495.304, 718.771 495.669 M 804.234 497.916 L 807.500 500.831 807.836 513.166 C 808.090 522.485, 808.518 525.695, 809.586 526.300 C 810.377 526.747, 811 528.620, 811 530.550 C 811 533.826, 810.824 534, 807.500 534 C 805.388 534, 803.242 533.242, 802.090 532.090 C 800.211 530.211, 800.106 530.219, 795.421 532.590 C 792.803 533.916, 789.343 535, 787.732 535 C 783.259 535, 778.356 532.212, 776.613 528.679 C 775.304 526.023, 775.042 525.858, 775.023 527.672 C 775.009 529.002, 776.620 531.231, 779.180 533.422 C 782.926 536.628, 783.959 537, 789.121 537 C 792.290 537, 795.160 536.550, 795.500 536 C 795.840 535.450, 797.865 535, 800 535 C 802.135 535, 804.160 535.450, 804.500 536 C 805.420 537.489, 809.751 537.209, 812.371 535.492 C 814.718 533.955, 820.482 534.353, 821.580 536.129 C 821.876 536.608, 825.835 537, 830.379 537 C 838.387 537, 838.766 536.892, 842.761 533.472 C 845.028 531.532, 847.167 529.050, 847.513 527.958 C 847.860 526.865, 848.562 526.229, 849.072 526.544 C 850.371 527.347, 850.262 526.846, 848.052 521.850 C 846.980 519.428, 844.871 516.333, 843.364 514.973 L 840.624 512.500 842.812 515.385 C 847.898 522.092, 844.211 531.789, 835.702 534.080 C 828.912 535.908, 814.277 532.669, 815.311 529.566 C 815.503 528.991, 814.611 527.696, 813.330 526.688 C 811.294 525.086, 811 523.988, 811 517.986 C 811 514.209, 810.550 510.840, 810 510.500 C 809.450 510.160, 809 507.743, 809 505.128 C 809 501.225, 808.498 499.893, 806.195 497.687 C 804.653 496.209, 802.846 495, 802.180 495 C 801.513 495, 802.438 496.312, 804.234 497.916 M 877.633 496.772 C 881.319 499.758, 882.267 503.063, 882.781 514.725 C 883.056 520.957, 883.668 526.295, 884.141 526.587 C 884.613 526.879, 885 528.666, 885 530.559 C 885 533.680, 884.733 534, 882.135 534 C 880.559 534, 878.097 533.077, 876.663 531.949 L 874.056 529.899 871.015 532.147 C 866.707 535.332, 858.348 535.368, 854.086 532.220 C 852.389 530.966, 851 530.334, 851 530.815 C 851 531.809, 853.439 533.907, 856.736 535.750 C 859.283 537.174, 869.603 537.452, 870.426 536.119 C 871.505 534.374, 876.411 534.248, 880.745 535.854 C 885.001 537.432, 885.221 537.418, 886.639 535.497 C 888.173 533.416, 887.741 527.424, 885.922 525.550 C 885.415 525.027, 885 519.821, 885 513.980 L 885 503.360 881.422 499.180 C 879.454 496.881, 877.317 495.010, 876.672 495.022 C 876.027 495.034, 876.460 495.822, 877.633 496.772 M 598.086 497.668 C 597.937 501.421, 596.863 503, 594.458 503 C 591.359 503, 587.689 504.454, 585.655 506.488 C 584.286 507.857, 584 510.374, 584 521.071 L 584 534 579.250 534.032 C 574.856 534.061, 574.645 534.174, 576.441 535.532 C 578.737 537.269, 583.590 537.473, 584.577 535.875 C 584.960 535.256, 585.198 529.665, 585.107 523.452 C 585.007 516.604, 585.347 511.904, 585.971 511.518 C 586.537 511.168, 587 510.009, 587 508.941 C 587 507.765, 587.690 506.994, 588.750 506.985 C 591.751 506.959, 598.233 504.334, 599.094 502.797 C 599.546 501.990, 599.523 500.018, 599.044 498.415 C 598.344 496.075, 598.155 495.928, 598.086 497.668 M 379.079 515.250 L 379 534 374.500 534 L 370 534 369.777 517.250 L 369.553 500.500 369.251 516.893 C 368.905 535.684, 369.354 537, 376.108 537 C 379.487 537, 380.095 536.602, 381.616 533.396 C 383.030 530.417, 383.125 529.234, 382.163 526.575 C 381.523 524.806, 381 521.724, 381 519.726 C 381 515.585, 382.864 510.798, 384.164 511.601 C 384.890 512.050, 383.638 508.206, 379.732 498 C 379.416 497.175, 379.122 504.938, 379.079 515.250 M 405.501 512.664 C 401.659 522.487, 398.963 528.054, 398.001 528.151 C 397.176 528.234, 395.213 528.198, 393.640 528.072 C 390.011 527.781, 390.498 529.999, 394.345 531.282 C 398.270 532.590, 401.290 530.211, 404.495 523.287 C 405.968 520.104, 407.585 516.719, 408.087 515.764 C 408.589 514.809, 409 512.928, 409 511.585 C 409 510.242, 409.700 508.443, 410.555 507.587 C 411.605 506.538, 412.012 504.616, 411.805 501.680 C 411.513 497.506, 411.254 497.956, 405.501 512.664 M 459.678 500.250 C 460.921 502.585, 461.518 506.597, 461.800 514.500 C 462.016 520.550, 462.599 525.928, 463.096 526.450 C 464.237 527.649, 464.283 533.707, 463.156 534.403 C 461.804 535.239, 454.939 533.004, 454.379 531.545 C 453.988 530.527, 452.813 530.804, 449.370 532.728 C 443.271 536.137, 436.284 535.603, 431.885 531.392 L 428.863 528.500 430.317 531.306 C 432.683 535.872, 434.909 536.934, 442.191 536.968 C 445.871 536.986, 449.160 536.550, 449.500 536 C 449.840 535.450, 451.640 535, 453.500 535 C 455.360 535, 457.160 535.450, 457.500 536 C 458.525 537.659, 463.577 537.125, 465.345 535.171 C 467.186 533.137, 467.443 530.849, 466.123 528.236 C 463.983 524.001, 463.158 518.858, 463.240 510.260 C 463.312 502.648, 463.007 500.665, 461.509 499.010 C 458.733 495.942, 457.743 496.613, 459.678 500.250 M 537.652 499.750 C 536.727 504.004, 535.399 505.575, 533.826 504.275 C 533.097 503.672, 530.815 502.864, 528.757 502.479 C 521.737 501.168, 517.608 503.761, 520.519 507.653 C 521.848 509.428, 521.963 509.413, 523.507 507.250 C 525.201 504.878, 531.284 504.032, 532.500 506 C 533.400 507.457, 536.240 507.226, 539.905 505.398 C 542.881 503.913, 543.256 503.922, 545.018 505.517 C 546.499 506.857, 546.995 508.928, 547.259 514.869 C 547.586 522.248, 547.604 522.178, 547.799 512.750 L 548 503 545 503 C 542.778 503, 542 502.533, 542 501.200 C 542 499.419, 540.229 497, 538.925 497 C 538.554 497, 537.981 498.238, 537.652 499.750 M 567.836 500.122 C 567.544 502.192, 566.885 502.539, 562.750 502.805 L 558 503.110 558 514.020 C 558 523.783, 558.203 525.038, 559.934 525.965 C 562.533 527.356, 563.458 527.270, 562.259 525.750 C 561.717 525.063, 561.002 520.804, 560.671 516.287 C 560.011 507.289, 560.973 505, 565.416 505 C 566.667 505, 568.517 504.086, 569.528 502.969 C 571.212 501.109, 571.232 500.803, 569.769 499.341 C 568.307 497.878, 568.144 497.944, 567.836 500.122 M 842.995 501.011 C 841.945 503.547, 841.289 504.026, 839.597 503.493 C 838.444 503.130, 835.181 502.594, 832.347 502.301 C 827.873 501.839, 827.050 502.038, 826.099 503.815 C 825.230 505.438, 825.365 506.224, 826.752 507.618 C 828.419 509.292, 828.515 509.272, 828.820 507.187 C 828.995 505.984, 829.895 504.956, 830.820 504.902 C 831.744 504.848, 835.372 504.736, 838.882 504.652 C 843.730 504.537, 845.529 504.084, 846.365 502.769 C 847.212 501.438, 847.100 500.671, 845.882 499.453 C 844.436 498.007, 844.183 498.143, 842.995 501.011 M 437.716 503.564 C 435.085 504.398, 433.199 505.512, 433.525 506.040 C 434.325 507.335, 439.338 507.262, 440.664 505.936 C 441.249 505.351, 443.700 505.013, 446.109 505.186 C 450.071 505.470, 450.551 505.787, 451.127 508.500 L 451.763 511.500 451.882 508.372 C 451.947 506.652, 451.365 504.718, 450.589 504.074 C 448.285 502.162, 442.824 501.946, 437.716 503.564 M 483.229 502.669 C 481.884 503.210, 479 508.176, 479 509.950 C 479 510.528, 479.900 511, 481 511 C 482.259 511, 483 510.333, 483 509.200 C 483 508.210, 483.540 506.860, 484.200 506.200 C 485.783 504.617, 492.694 504.654, 493.338 506.250 C 493.703 507.155, 493.864 507.171, 493.921 506.307 C 494.113 503.411, 487.217 501.065, 483.229 502.669 M 613.535 504.374 C 608.607 509.302, 609.503 522.427, 615 525.852 L 617.500 527.409 615.250 524.890 C 613.405 522.824, 613 521.199, 613 515.860 C 613 510.347, 613.355 509.015, 615.314 507.174 C 618.106 504.552, 622.621 504.360, 625.317 506.750 C 627.231 508.447, 627.256 508.433, 626.123 506.273 C 623.637 501.535, 617.326 500.583, 613.535 504.374 M 702.775 503.559 C 701.276 504.372, 699.589 505.900, 699.025 506.953 C 698.461 508.007, 698 514.523, 698 521.434 L 698 534 693.878 534 C 690.327 534, 689.928 534.208, 691 535.500 C 692.714 537.565, 697.343 537.383, 699.345 535.171 C 700.704 533.670, 701 531.049, 701 520.532 C 701 509.503, 701.244 507.536, 702.750 506.392 C 705.586 504.239, 710.658 504.674, 712.443 507.223 C 713.723 509.049, 714 509.138, 714 507.723 C 714 505.266, 710.400 501.993, 707.750 502.040 C 706.513 502.062, 704.274 502.746, 702.775 503.559 M 783 503.582 C 779.547 504.993, 779.592 505.007, 786.313 504.616 C 795.110 504.105, 796.794 504.601, 797.294 507.852 C 797.657 510.219, 797.716 510.159, 797.850 507.285 C 797.955 505.028, 797.424 503.762, 796.066 503.035 C 793.398 501.608, 787.197 501.867, 783 503.582 M 853.259 503 C 853.574 504.150, 855.456 504.533, 861.331 504.642 C 870.534 504.811, 871.714 505.194, 872.286 508.189 L 872.728 510.500 872.864 508.250 C 873.185 502.939, 867.097 500.735, 858.612 503.091 C 855.550 503.941, 854.524 503.886, 853.786 502.835 C 853.039 501.773, 852.932 501.806, 853.259 503 M 677 506.917 L 677 511 666.500 511 L 656 511 656 518.500 L 656 526 667.750 525.789 L 679.500 525.578 669.395 525.256 C 659.646 524.945, 659.249 524.843, 658.117 522.357 C 657.146 520.226, 657.259 519.240, 658.775 516.641 C 660.577 513.550, 660.742 513.495, 669.182 513.213 C 676.249 512.976, 678.075 512.575, 679.561 510.933 C 680.966 509.380, 681.159 508.356, 680.432 506.301 C 678.889 501.933, 677 502.272, 677 506.917 M 222.500 507.523 C 219.750 508.287, 216.461 508.932, 215.191 508.956 C 213.914 508.980, 213.158 509.447, 213.500 510 C 213.840 510.550, 216.990 511, 220.500 511 C 224.010 511, 227.160 510.550, 227.500 510 C 227.840 509.450, 230.765 509, 234 509 C 237.235 509, 240.160 509.450, 240.500 510 C 240.840 510.550, 241.957 511, 242.982 511 C 244.007 511, 246.229 512.383, 247.920 514.074 C 249.933 516.087, 250.770 516.519, 250.345 515.324 C 247.525 507.397, 235.294 503.971, 222.500 507.523 M 573.385 521 C 573.385 527.875, 573.545 530.688, 573.740 527.250 C 573.936 523.813, 573.936 518.188, 573.740 514.750 C 573.545 511.313, 573.385 514.125, 573.385 521 M 511 512.754 C 511 513.361, 512.516 515.465, 514.368 517.429 C 517.263 520.498, 518.370 521, 522.246 521 C 527.634 521, 530.009 522.985, 527.927 525.750 C 526.700 527.380, 526.742 527.379, 528.538 525.731 C 531.398 523.108, 529.474 520.921, 521.905 518.192 C 518.385 516.922, 514.491 514.931, 513.252 513.767 C 512.014 512.604, 511 512.148, 511 512.754 M 534.225 513.516 C 537.663 515.436, 539 517.920, 539 522.387 C 539 527.577, 537.074 530.921, 532.843 533.080 C 528.422 535.336, 520.307 535.557, 514.750 533.574 C 510.664 532.116, 509.968 532.756, 512.829 535.345 C 514.247 536.629, 516.690 537, 523.714 537 C 536.098 537, 539.849 534.889, 541.360 527.069 C 542.755 519.844, 539.859 513.744, 534.500 512.622 L 531.500 511.994 534.225 513.516 M 819 515.001 C 819 516.292, 823.790 518.996, 826.215 519.073 C 829.599 519.181, 834.524 522.449, 834.343 524.467 C 834.227 525.769, 834.475 525.925, 835.321 525.079 C 836.591 523.809, 835.396 521.194, 832.933 519.854 C 829.394 517.929, 819 514.309, 819 515.001 M 790.413 516.943 C 788.715 517.349, 786.802 518.004, 786.163 518.399 C 784.641 519.340, 784.666 524.266, 786.200 525.800 C 787.951 527.551, 789.469 527.270, 787.976 525.471 C 786.922 524.201, 787.113 523.509, 789.103 521.390 C 790.941 519.434, 792.257 518.928, 794.750 519.219 C 797.353 519.523, 798 519.240, 798 517.799 C 798 515.857, 795.930 515.624, 790.413 516.943 M 864.225 516.709 C 859.603 517.596, 857.584 524.859, 861.538 526.376 C 862.606 526.786, 863 526.183, 863 524.138 C 863 520.805, 866.516 518.483, 870.428 519.231 C 872.446 519.617, 873 519.321, 873 517.861 C 873 515.969, 870.080 515.585, 864.225 516.709 M 441.185 517.684 C 437.550 519.138, 437.949 527, 441.658 527 C 443.007 527, 443.043 526.757, 441.902 525.382 C 440.741 523.983, 440.961 523.439, 443.529 521.364 C 447.185 518.411, 450.186 518.663, 451.109 522 C 451.700 524.136, 451.815 523.954, 451.900 520.750 L 452 517 447.250 517.079 C 444.637 517.122, 441.908 517.395, 441.185 517.684 M 312.104 524.500 C 312.802 526.150, 314.586 528.850, 316.067 530.500 C 319.806 534.665, 321 537.297, 321 541.375 C 321 543.304, 321.521 545.204, 322.157 545.597 C 324.090 546.792, 322.335 537.592, 319.613 532.256 C 318.279 529.640, 315.757 526.150, 314.011 524.500 L 310.835 521.500 312.104 524.500 M 769 523.359 C 769 523.726, 769.521 524.861, 770.158 525.881 C 770.795 526.901, 771.051 528.426, 770.727 529.270 C 769.945 531.307, 759.903 535, 755.144 535 C 749.334 535, 741.524 532.292, 738.094 529.088 C 736.392 527.498, 735.010 526.716, 735.022 527.349 C 735.058 529.224, 738.281 532.487, 741.500 533.908 C 743.150 534.637, 745.281 535.631, 746.236 536.117 C 748.886 537.464, 764.690 537.189, 767.264 535.750 C 773.422 532.308, 774.856 527.990, 771 524.500 C 769.900 523.505, 769 522.991, 769 523.359 M 680.838 529.428 L 681.201 534 663.978 534 C 648.782 534, 646.902 534.177, 648 535.500 C 649.007 536.713, 652.157 537, 664.476 537 C 679.258 537, 679.786 536.928, 682.354 534.548 C 685.564 531.572, 685.583 531.241, 682.732 527.678 L 680.474 524.857 680.838 529.428 M 471.005 527.346 C 471.002 527.811, 471.911 529.471, 473.025 531.035 C 476.371 535.734, 480.187 537.003, 490.904 536.978 C 502.145 536.952, 505.410 535.435, 504.834 530.509 C 504.650 528.939, 503.973 527.481, 503.329 527.270 C 502.585 527.026, 502.353 527.636, 502.695 528.940 C 503.952 533.750, 487.611 536.911, 479.218 533.481 C 477.173 532.645, 474.490 530.733, 473.255 529.231 C 472.020 527.729, 471.008 526.881, 471.005 527.346 M 568.032 531.189 C 568.003 533.608, 567.542 533.946, 563.430 534.563 C 560.261 535.038, 557.654 534.775, 554.930 533.705 C 550.548 531.983, 549.697 532.916, 553.422 535.357 C 556.992 537.696, 566.478 537.783, 569.001 535.499 C 571.391 533.337, 571.431 532.952, 569.532 530.441 C 568.123 528.578, 568.062 528.609, 568.032 531.189 M 308.381 536.152 L 314.161 541.303 304.349 551.152 C 298.953 556.568, 293.957 561, 293.246 561 C 292.536 561, 289.951 559.153, 287.502 556.895 C 283.143 552.877, 283.081 552.856, 284.585 555.870 C 286.214 559.135, 290.023 562.279, 293.753 563.437 C 295.586 564.006, 297.093 563.099, 301.843 558.568 C 305.054 555.506, 308.168 553, 308.762 553 C 310.558 553, 317 544.794, 317 542.507 C 317 540.027, 313.109 536.080, 307.720 533.094 C 301.939 529.892, 302.078 530.534, 308.381 536.152 M 342.481 537.500 C 344.093 545.265, 344.314 544.652, 339.404 546.027 C 336.074 546.959, 334.574 547.989, 333.877 549.824 C 332.559 553.290, 333.074 554.991, 336 556.846 L 338.500 558.432 336.586 556.206 C 334.909 554.255, 334.837 553.673, 336.005 551.490 C 336.932 549.759, 338.180 549, 340.101 549 C 342.009 549, 343.503 548.102, 344.932 546.096 C 347.422 542.599, 347.520 540.724, 345.385 537.465 C 343.302 534.286, 341.817 534.304, 342.481 537.500 M 265.817 541.783 C 264.341 542.756, 252.191 554.689, 238.817 568.301 C 225.442 581.912, 214.024 593.038, 213.441 593.024 C 210.410 592.954, 208.699 590.090, 208 583.913 L 207.274 577.500 207.137 583.096 C 206.978 589.584, 209.197 595, 212.014 595 C 213.041 595, 214.160 595.450, 214.500 596 C 214.840 596.550, 216.640 597, 218.500 597 C 220.360 597, 222.160 597.450, 222.500 598 C 222.850 598.567, 227.793 599, 233.905 599 C 246.365 599, 248.375 598.282, 255 591.467 C 257.475 588.921, 260.762 585.926, 262.304 584.812 C 264.987 582.875, 265.191 582.863, 267.054 584.549 C 268.913 586.232, 269 586.230, 269 584.515 C 269 582.656, 266.347 580.087, 264.368 580.032 C 263.746 580.014, 259.250 583.600, 254.376 588 L 245.515 596 232.758 596 C 225.741 596, 220 595.663, 220 595.250 C 219.999 594.837, 222.362 592.366, 225.250 589.758 C 228.137 587.150, 229.600 585.325, 228.500 585.703 C 225.992 586.565, 238.165 573.249, 248.650 563.660 C 253.814 558.938, 255.838 557.521, 254.596 559.500 L 252.712 562.500 255.312 560.117 C 256.742 558.807, 257.825 557.457, 257.720 557.117 C 257.340 555.894, 265.751 545.470, 268.156 544.183 C 269.510 543.459, 272.613 543.009, 275.052 543.183 C 278.783 543.450, 279.699 543.947, 280.833 546.326 C 282.475 549.766, 283.533 549.264, 281.952 545.794 C 279.506 540.426, 271.059 538.326, 265.817 541.783 M 262.863 560.732 C 264.918 564.760, 271.990 571.866, 276.106 574.039 C 277.423 574.735, 276.140 573.171, 273.255 570.564 C 270.370 567.957, 267.274 564.273, 266.375 562.377 C 265.475 560.482, 263.874 558.468, 262.817 557.902 C 260.937 556.896, 260.938 556.959, 262.863 560.732 M 339.383 566.054 C 337.755 570.584, 337.317 571.045, 335.166 570.506 C 328.271 568.775, 327.503 568.835, 325.195 571.293 L 322.898 573.737 325.198 578.471 L 327.498 583.205 323.499 586.588 C 321.300 588.448, 319.178 589.977, 318.785 589.985 C 318.391 589.993, 316.510 588.631, 314.604 586.958 C 311.202 583.970, 311.073 583.943, 307.493 585.439 C 303.951 586.918, 303.855 587.098, 304.138 591.694 C 304.401 595.985, 304.198 596.491, 301.964 597.114 C 300.609 597.491, 297.982 597.845, 296.128 597.900 C 293.248 597.985, 292.937 598.219, 294 599.500 C 294.747 600.400, 296.934 601, 299.467 601 C 304.635 601, 307 598.748, 307 593.826 C 307 591.690, 307.718 589.661, 308.829 588.655 C 311.150 586.554, 311.929 586.598, 315 589 C 318.291 591.575, 325.085 591.669, 327.345 589.171 C 329.217 587.103, 329.532 582.932, 327.937 581.337 C 326.112 579.512, 326.518 574.078, 328.597 572.504 C 330.848 570.800, 332.644 570.616, 333.500 572 C 334.525 573.659, 339.577 573.125, 341.345 571.171 C 343.090 569.243, 343.703 561, 342.100 561 C 341.606 561, 340.383 563.274, 339.383 566.054 M 184.500 583 C 175.338 592.190, 173.033 594, 170.490 594 C 166.771 594, 163.455 591.794, 160.918 587.633 C 158.713 584.017, 158.314 585.450, 160.404 589.479 C 162.048 592.646, 168.062 597, 170.793 597 C 171.838 597, 174.010 596.343, 175.620 595.539 C 179.007 593.850, 198 574.840, 198 573.140 C 198 570.350, 194.731 572.737, 184.500 583 M 280.275 592.430 L 277.599 596.859 274.178 595.430 C 269.524 593.486, 269.281 593.605, 272 596.500 C 275.415 600.135, 278.342 599.701, 282.120 595 C 285.411 590.905, 287.678 590.078, 289.800 592.200 C 291.274 593.674, 291.357 592.535, 289.965 589.934 C 289.296 588.684, 287.872 588, 285.940 588 C 283.474 588, 282.483 588.775, 280.275 592.430"/><path fill-rule="evenodd" fill="#193050" stroke="none" d="M 243.962 413.959 C 242.058 415.587, 240.115 416.937, 239.644 416.959 C 239.174 416.982, 237.526 418.012, 235.982 419.250 C 234.439 420.488, 228.594 424.650, 222.993 428.500 C 217.392 432.350, 210.307 437.637, 207.249 440.250 C 204.191 442.863, 200.885 445, 199.903 445 C 198.921 445, 197.840 445.450, 197.500 446 C 195.907 448.577, 195 446.399, 195 440 L 195 433 185.700 433 C 179.800 433, 175.961 433.439, 175.200 434.200 C 174.384 435.016, 174 439.772, 174 449.075 L 174 462.750 166.250 468.091 C 161.988 471.028, 156.664 474.797, 154.421 476.466 C 152.177 478.135, 148.127 481.075, 145.421 483 L 140.500 486.500 149.500 487 L 158.500 487.500 159 536.500 C 159.543 589.736, 159.396 588.441, 165.314 592.050 C 170.950 595.486, 172.288 594.847, 184.552 582.863 C 190.820 576.738, 195.709 571.338, 195.415 570.863 C 195.122 570.388, 192.974 570, 190.641 570 C 188.308 570, 185.860 569.460, 185.200 568.800 C 184.302 567.902, 184.013 556.650, 184.054 524.050 L 184.107 480.500 216.571 457.174 L 249.035 433.848 265.268 445.619 C 274.195 452.093, 289.150 463.040, 298.500 469.945 L 315.500 482.500 328 482.820 C 334.875 482.996, 342.748 482.996, 345.496 482.820 L 350.493 482.500 321.496 461.904 C 258.191 416.939, 249.683 411, 248.575 411 C 247.942 411, 245.866 412.332, 243.962 413.959 M 238 464 L 238 469 242.500 469 L 247 469 247 464 L 247 459 242.500 459 L 238 459 238 464 M 251 464 L 251 469 255.500 469 L 260 469 260 464 L 260 459 255.500 459 L 251 459 251 464 M 238 477 L 238 482 242.500 482 L 247 482 247 477 L 247 472 242.500 472 L 238 472 238 477 M 251 477 L 251 482 255.500 482 L 260 482 260 477 L 260 472 255.500 472 L 251 472 251 477 M 743.439 482.874 C 741.755 483.901, 738.769 486.621, 736.802 488.918 C 733.743 492.492, 733.129 494.062, 732.547 499.797 C 731.351 511.596, 732.058 519.619, 734.724 524.500 C 739.599 533.425, 755.235 537.105, 765.796 531.813 C 771.177 529.116, 771.707 528.094, 769.280 525.098 L 767.495 522.893 762.635 525.043 C 753.805 528.949, 744.295 525.322, 742.035 517.186 C 740.363 511.165, 740.803 500.031, 742.895 495.424 C 745.963 488.670, 754.525 486.103, 762.654 489.500 C 767.344 491.460, 767.480 491.437, 768.839 488.453 C 770.546 484.709, 770.379 484.369, 765.980 482.609 C 760.177 480.287, 747.435 480.437, 743.439 482.874 M 370.667 482.667 C 370.300 483.033, 370 494.733, 370 508.667 L 370 534 374.500 534 L 379 534 379.047 514.750 L 379.093 495.500 382.957 505.500 C 391.505 527.622, 391.419 527.466, 395.286 527.803 C 398.756 528.106, 398.780 528.079, 402.018 520.303 C 403.805 516.012, 406.765 508.675, 408.597 504 L 411.926 495.500 411.963 513.168 C 411.983 522.886, 412.273 531.548, 412.607 532.418 C 413.017 533.486, 414.480 534, 417.107 534 L 421 534 421 508 L 421 482 416.073 482 C 411.940 482, 410.811 482.425, 409.073 484.635 C 407.933 486.084, 407 488.019, 407 488.935 C 407 489.851, 406.613 491.028, 406.139 491.550 C 405.666 492.072, 403.340 497.675, 400.972 504 C 398.603 510.325, 396.346 515.872, 395.957 516.326 C 395.567 516.780, 394.730 515.655, 394.096 513.826 C 393.462 511.997, 390.439 504.087, 387.378 496.250 L 381.813 482 376.573 482 C 373.691 482, 371.033 482.300, 370.667 482.667 M 646.487 484.250 C 646.184 485.488, 646.063 497.075, 646.218 510 L 646.500 533.500 663.500 533.500 L 680.500 533.500 680.809 529.780 L 681.117 526.061 668.309 525.780 L 655.500 525.500 655.206 518.250 L 654.912 511 661.706 510.901 C 665.443 510.847, 669.400 510.705, 670.500 510.586 C 671.600 510.467, 673.513 510.286, 674.750 510.185 C 676.620 510.031, 677 509.408, 677 506.500 L 677 503 665.954 503 L 654.909 503 655.204 496.250 L 655.500 489.500 667.750 489.219 L 680 488.938 680 485.469 L 680 482 663.519 482 C 647.258 482, 647.031 482.030, 646.487 484.250 M 549.200 487.200 C 548.540 487.860, 548 490.110, 548 492.200 C 548 494.716, 547.546 496, 546.655 496 C 544.614 496, 541.679 499.722, 542.347 501.463 C 542.672 502.308, 544.022 503, 545.348 503 C 547.738 503, 547.763 503.103, 548.236 515.250 C 548.498 521.987, 549.057 528.304, 549.477 529.287 C 550.690 532.121, 555.441 534, 561.391 534 C 567.556 534, 568.446 533.303, 567.032 529.584 C 566.287 527.625, 565.348 527, 563.147 527 C 558.563 527, 557.819 525.143, 557.652 513.279 L 557.500 502.500 562.311 502.193 C 566.882 501.901, 567.106 501.751, 566.811 499.193 C 566.535 496.804, 565.993 496.444, 562 496 L 557.500 495.500 557.195 490.750 C 556.898 486.122, 556.807 486, 553.645 486 C 551.860 486, 549.860 486.540, 549.200 487.200 M 313.667 488.667 C 313.300 489.033, 313 493.503, 313 498.599 C 313 507.684, 313.056 507.904, 315.904 509.932 C 319.346 512.383, 320.946 512.508, 323.559 510.532 C 326.690 508.164, 328.622 508.741, 332.422 513.180 L 336 517.360 336 502.680 L 336 488 325.167 488 C 319.208 488, 314.033 488.300, 313.667 488.667 M 860.134 495.048 C 855.156 496.060, 853.122 498.190, 853.792 501.693 C 854.134 503.480, 854.681 503.931, 855.878 503.411 C 856.770 503.024, 860.233 502.500, 863.573 502.248 C 870.334 501.738, 873 503.213, 873 507.464 C 873 510.267, 871.350 511, 865.040 511 C 859.421 511, 853.987 513.052, 852.318 515.805 C 848.692 521.786, 850.042 529.936, 855.091 532.547 C 859.469 534.811, 867.097 534.410, 871.102 531.706 C 874.372 529.498, 874.557 529.480, 876 531.236 C 876.825 532.240, 879.188 533.331, 881.250 533.661 C 884.987 534.260, 885 534.250, 885 530.738 C 885 528.528, 884.441 526.999, 883.500 526.638 C 882.291 526.174, 881.997 523.877, 881.985 514.781 C 881.969 502.703, 881.183 499.886, 877 496.921 C 873.928 494.742, 865.982 493.860, 860.134 495.048 M 436.250 496.491 C 433.565 497.658, 433 498.454, 433 501.068 C 433 504.014, 433.191 504.188, 435.750 503.575 C 437.262 503.213, 440.650 502.652, 443.278 502.328 C 448.968 501.628, 452 503.654, 452 508.155 C 452 510.964, 451.925 511, 446.020 511 C 438.439 511, 432.379 513.366, 430.462 517.074 C 428.355 521.147, 428.611 527.235, 431.016 530.293 C 435.035 535.403, 444.942 536.193, 450.471 531.844 C 452.999 529.855, 453.001 529.855, 455.635 531.927 C 457.084 533.067, 459.559 534, 461.135 534 C 463.729 534, 464 533.677, 464 530.583 C 464 528.704, 463.444 526.981, 462.764 526.755 C 461.908 526.469, 461.369 522.489, 461.013 513.824 C 460.465 500.473, 459.970 499.070, 454.872 496.434 C 451.331 494.603, 440.518 494.636, 436.250 496.491 M 478.765 496.654 C 473.601 499.375, 469 507.965, 469 514.883 C 469 520.206, 472.007 527.828, 475.150 530.473 C 480.689 535.134, 489.043 536.144, 497.431 533.167 C 502.850 531.243, 503.660 530.237, 501.763 527.786 C 500.703 526.415, 499.619 526.297, 495.019 527.052 C 485.971 528.538, 479 525.372, 479 519.777 C 479 518.169, 480.188 518, 491.500 518 L 504 518 504 512.712 C 504 505.677, 500.704 499.101, 496 496.752 C 491.770 494.638, 482.687 494.587, 478.765 496.654 M 515.775 496.559 C 512.181 498.509, 511 500.924, 511 506.323 C 511 512.382, 513.048 514.522, 522 517.814 C 528.996 520.388, 529.500 520.769, 529.500 523.499 C 529.500 527.699, 525.010 528.888, 517.913 526.566 C 512.392 524.761, 511.603 525.032, 510.658 529.060 C 510.140 531.267, 510.507 531.782, 513.326 532.801 C 522.249 536.027, 531.680 535.098, 535.931 530.574 C 537.330 529.084, 538.424 526.417, 538.723 523.766 C 539.395 517.804, 536.003 513.724, 528.580 511.566 C 521.475 509.501, 518.102 506.771, 519.617 504.313 C 520.820 502.362, 528.018 501.850, 533.062 503.357 C 535.219 504.001, 535.811 503.711, 536.812 501.514 C 538.417 497.991, 538.462 498.091, 534.532 496.449 C 530.055 494.578, 519.308 494.641, 515.775 496.559 M 577 495.894 L 574.500 496.589 574.228 515.294 L 573.956 534 578.478 534 L 583 534 583 521.423 C 583 508.856, 583.002 508.844, 585.923 505.923 C 588.198 503.648, 589.750 503, 592.923 503 L 597 503 597 499 C 597 495.371, 596.762 495, 594.430 495 C 593.017 495, 589.862 496.375, 587.420 498.055 C 582.685 501.313, 582.970 501.399, 581.435 496.250 C 581.029 494.887, 580.714 494.862, 577 495.894 M 610.295 496.014 C 609.083 496.503, 606.506 499.062, 604.570 501.701 C 601.287 506.176, 601.048 507.008, 601.025 514.038 C 600.979 527.866, 606.857 534.517, 619 534.380 C 624.917 534.313, 629.208 532.578, 632.683 528.845 C 635.912 525.378, 637 521.658, 637 514.092 C 637 505.743, 634.158 499.627, 628.991 496.855 C 625.260 494.855, 614.390 494.366, 610.295 496.014 M 690.695 496.785 C 689.236 498.396, 689 501.121, 689 516.329 L 689 534 693.500 534 L 698 534 698 521.082 C 698 513.977, 698.280 507.435, 698.621 506.545 C 700.142 502.582, 709.438 500.580, 712.429 503.571 C 714.257 505.400, 714.392 506.654, 714.817 525.750 L 715 534 719.066 534 L 723.132 534 722.816 516.911 L 722.500 499.822 719.694 497.411 C 717.428 495.464, 715.775 495, 711.098 495 C 705.448 495, 699.797 496.902, 698.313 499.303 C 697.852 500.048, 697.371 499.566, 697.002 497.990 C 696.273 494.880, 692.987 494.252, 690.695 496.785 M 781.692 496.689 C 779.512 497.834, 778.952 498.763, 779.192 500.833 C 779.451 503.073, 779.901 503.430, 782 503.061 C 783.375 502.820, 787.180 502.595, 790.455 502.561 C 795.853 502.506, 796.548 502.743, 797.873 505.093 C 800.411 509.596, 798.918 511, 791.590 511 C 788.031 511, 784.840 511.450, 784.500 512 C 784.160 512.550, 783.078 513, 782.096 513 C 778.203 513, 774.721 521.071, 776.191 526.687 C 778.055 533.811, 787.946 536.406, 795.995 531.882 L 799.763 529.765 802.745 531.970 C 806.851 535.006, 810.398 534.399, 810.832 530.586 C 811.047 528.700, 810.606 527.359, 809.582 526.786 C 808.309 526.074, 807.999 524.003, 807.994 516.200 C 807.984 498.327, 805.406 494.927, 792 495.110 C 787.510 495.171, 783.373 495.805, 781.692 496.689 M 822.357 495.992 C 821.178 496.467, 819.491 497.889, 818.607 499.151 C 816.691 501.887, 816.473 509.905, 818.250 512.309 C 818.938 513.239, 823.097 515.481, 827.494 517.290 C 835.635 520.641, 837.407 522.600, 834.960 525.548 C 833.673 527.099, 825.994 527.445, 822.576 526.106 C 820.434 525.266, 816.300 526.821, 815.550 528.748 C 813.955 532.847, 832.415 535.905, 838.804 532.601 C 844.124 529.850, 846.402 523.172, 843.897 517.673 C 842.631 514.895, 836.281 511, 833.018 511 C 830.273 511, 825 507.354, 825 505.455 C 825 504.680, 826.127 503.308, 827.504 502.405 C 829.595 501.035, 830.728 500.946, 834.375 501.864 C 836.777 502.469, 839.373 503.206, 840.144 503.502 C 841.049 503.849, 841.961 502.942, 842.715 500.945 C 843.842 497.959, 843.762 497.798, 840.474 496.425 C 836.756 494.871, 825.783 494.609, 822.357 495.992 M 481.455 504.455 C 477.654 508.255, 478.245 510.341, 483.569 511.912 C 486.968 512.916, 488.428 512.972, 489.269 512.131 C 489.891 511.509, 491.491 511, 492.825 511 C 495.025 511, 495.191 510.699, 494.612 507.750 C 494.260 505.962, 493.218 503.938, 492.295 503.250 C 489.467 501.142, 484.179 501.730, 481.455 504.455 M 613.736 503.250 C 608.638 507.121, 608.853 523.245, 614.039 526.021 C 615.045 526.559, 617.688 527, 619.911 527 C 623.126 527, 624.291 526.485, 625.601 524.486 C 628.989 519.316, 628.615 507.615, 624.944 503.944 C 622.699 501.699, 616.300 501.303, 613.736 503.250 M 312 517.438 C 312 521.008, 312.601 522.524, 315.074 525.188 C 321.095 531.676, 322.473 535.545, 322.487 546 C 322.502 556.841, 320.802 561.477, 314.238 568.500 C 300.409 583.297, 273.770 580.018, 263.500 562.256 C 261.850 559.402, 260.050 557.064, 259.500 557.061 C 258.950 557.058, 249.725 565.817, 239 576.526 L 219.500 595.996 232.356 595.998 L 245.212 596 254.542 587.435 L 263.873 578.871 266.436 580.550 C 268.661 582.008, 269 582.940, 269 587.602 C 269 592.830, 269.097 593.014, 272.622 594.487 C 274.614 595.319, 276.597 596, 277.027 596 C 277.458 596, 279.016 593.942, 280.491 591.426 C 282.322 588.301, 283.645 587.034, 284.667 587.426 C 285.490 587.742, 286.991 588, 288.001 588 C 289.324 588, 290.315 589.431, 291.534 593.102 C 293.159 597.994, 293.353 598.179, 296.239 597.602 C 297.895 597.271, 300.319 597, 301.625 597 C 303.833 597, 304 596.619, 304 591.578 C 304 586.282, 304.081 586.128, 307.451 585.016 C 311.231 583.769, 313.258 584.418, 316.393 587.882 C 318.255 589.940, 318.275 589.940, 320.882 587.990 C 327.726 582.870, 327.364 583.635, 325.067 579.131 C 322.511 574.122, 322.512 574.111, 325.255 570.749 C 327.493 568.008, 327.515 568.004, 332.300 569.467 L 337.099 570.934 339.050 566.384 C 340.122 563.882, 341 561.450, 341 560.981 C 341 560.512, 339.179 559.104, 336.953 557.853 C 333.169 555.727, 332.925 555.321, 333.203 551.617 C 333.483 547.887, 333.763 547.570, 338 546.191 C 340.475 545.385, 342.659 544.592, 342.853 544.427 C 343.047 544.263, 342.892 541.849, 342.509 539.064 L 341.812 534 336.963 534 C 333.085 534, 331.801 533.555, 330.557 531.777 C 328.381 528.671, 328.602 527.025, 331.619 523.876 L 334.238 521.143 332.166 518.232 C 328.363 512.892, 327.460 512.552, 323.528 514.983 L 320 517.163 316.632 515.082 C 314.780 513.937, 312.980 513, 312.632 513 C 312.284 513, 312 514.997, 312 517.438 M 443.259 516.705 C 440.781 517.182, 438 520.547, 438 523.068 C 438 525.311, 441.204 528, 443.878 528 C 445.100 528, 447.427 527.313, 449.050 526.474 C 451.650 525.130, 452 524.418, 452 520.474 C 452 516.065, 451.953 516.002, 448.750 516.136 C 446.962 516.211, 444.491 516.467, 443.259 516.705 M 788.315 517.007 C 783.459 518.964, 782.998 525.288, 787.585 527.032 C 790.649 528.197, 796.131 527.142, 797.718 525.081 C 798.388 524.212, 798.951 521.813, 798.968 519.750 L 799 516 794.750 516.063 C 792.413 516.098, 789.517 516.523, 788.315 517.007 M 862.280 517.020 C 859.718 518.051, 858.241 522.573, 859.707 524.897 C 861.315 527.446, 866.323 528.433, 869.632 526.853 C 872.109 525.671, 872.542 524.838, 872.805 520.742 L 873.110 516 868.805 516.063 C 866.437 516.098, 863.501 516.529, 862.280 517.020"/></svg>