<svg width="511" height="511" version="1.1" xmlns="http://www.w3.org/2000/svg" desc="Created with imagetracer.js version 1.2.6" ><path fill="rgb(254,254,254)" stroke="rgb(254,254,254)" stroke-width="1" opacity="0.996078431372549" d="M 251.5 40 Q 265.2 39.3 270 47.5 Q 274.2 52.3 273 62.5 L 272.5 64 Q 289 62 294 71.5 Q 298.1 76 297 85.5 Q 295.1 93.1 289.5 97 L 277 101.5 L 277 145 L 323 145 Q 322.3 133.1 329.5 128 Q 334.2 124.2 342.5 124 Q 351.8 125.8 356 132.5 Q 359 136.5 359 143.5 L 358 148 Q 360.4 146.2 366.5 147 Q 374.9 149.2 379 155.5 Q 382.3 160.2 381 169.5 Q 378.8 176.3 373.5 180 Q 369.2 183.2 361.5 183 L 358 182 L 359 188.5 L 356 197.5 L 350.5 203 Q 345.8 206.8 335.5 205 L 327 199.5 Q 321.8 194.7 323 185 L 277 185 L 277 239 L 393.5 239 L 394 235.5 Q 396 225.5 403.5 221 Q 408.6 217.6 418.5 219 Q 426.4 221.1 430 227.5 L 433 235.5 L 433 240.5 L 432 244 L 440.5 243 Q 449.8 244.8 454 251.5 Q 458.7 256.3 457 267.5 Q 454.4 274.9 448.5 279 L 440.5 282 L 435.5 282 L 432 281 L 433 289.5 Q 431 299.5 423.5 304 Q 418.4 307.4 408.5 306 Q 400.6 303.9 397 297.5 Q 393.8 293 394 286 L 277 286 L 277 485.5 L 254.5 508 L 232 485.5 L 232 286 L 115 286 Q 115.4 298 107.5 303 Q 102.3 307.8 90.5 306 Q 83.8 303.8 80 298.5 Q 75.6 293.4 77 282.5 L 77.5 281 L 69.5 282 Q 60.5 280.5 56 274.5 L 52 265.5 L 52 260.5 L 54 253.5 L 59.5 247 Q 64.8 242.8 74.5 243 L 77.5 244 L 77 242.5 Q 75.8 227.3 84.5 222 Q 89.7 217.2 101.5 219 Q 108.3 221.3 112 226.5 Q 115.9 231 115 239 L 232 239 L 232 185 L 186.5 185 L 186 186.5 L 187 188.5 L 184 197.5 L 178.5 203 Q 173.8 206.8 163.5 205 L 155 199.5 Q 149.8 195.2 151 184.5 L 152 182 L 143.5 183 Q 135.2 180.9 131 174.5 Q 128 170.5 128 163.5 L 130 156.5 L 133 152 L 139.5 148 L 148.5 147 L 152 148 Q 150.1 145.3 151 138.5 L 157.5 128 Q 162.2 124.2 170.5 124 Q 179.8 125.8 184 132.5 L 187 142.5 L 186 145 L 232 145 L 232 100 L 225.5 100 L 217 94.5 Q 211.3 89.2 213 76.5 L 218.5 68 Q 224 61.8 237 64 L 236 55.5 L 241 45 L 251.5 40 Z " /><path fill="rgb(0,0,0)" stroke="rgb(0,0,0)" stroke-width="1" opacity="0" d="M 0 0 L 511 0 L 511 511 L 0 511 L 0 0 Z M 255 3 L 4 254 Q 1 253 2 257 L 30 284 L 51 263 Q 52 275 60 280 Q 61 282 59 281 L 43 298 L 72 325 L 90 306 L 96 308 Q 104 307 110 303 L 115 296 L 116 289 L 118 287 L 135 288 L 84 339 L 84 340 L 86 340 L 112 366 Q 115 367 114 365 L 120 360 L 125 354 L 131 349 L 136 343 L 142 338 L 147 332 L 153 327 L 158 321 L 164 316 L 169 310 L 175 305 L 180 299 L 186 294 L 192 287 L 231 287 L 231 312 L 227 315 L 220 323 L 216 326 L 209 334 L 206 336 L 198 345 L 194 348 L 188 355 L 183 359 L 177 366 L 172 370 L 166 377 L 162 380 L 155 388 L 151 391 L 144 399 L 173 426 L 231 369 L 231 394 L 187 438 Q 184 437 185 440 L 213 467 L 215 467 L 229 452 L 231 451 L 231 477 L 227 481 L 231 487 L 255 510 L 507 257 Q 510 258 508 254 L 507 254 L 481 228 L 456 252 L 455 251 Q 450 243 439 242 L 442 240 L 467 215 L 467 213 L 466 213 L 439 186 L 407 218 L 407 219 L 402 221 L 388 238 L 361 238 L 425 173 L 397 145 L 395 148 L 391 151 L 383 160 L 379 154 Q 374 145 360 146 L 360 145 L 360 140 L 357 132 L 353 126 Q 355 127 354 125 L 365 115 L 365 113 L 338 85 L 280 144 L 278 143 L 278 118 L 280 117 L 324 72 L 296 44 L 279 61 L 279 62 L 274 63 Q 276 51 270 46 L 269 45 L 282 32 Q 285 33 283 29 L 282 29 L 255 3 Z " /><path fill="rgb(0,0,0)" stroke="rgb(0,0,0)" stroke-width="1" opacity="0" d="M 217.5 96 L 222.5 100 L 231 102 L 231 108.5 L 197 142.5 L 197 144 L 188 144 L 188 139.5 L 184 129.5 L 217.5 96 Z " /><path fill="rgb(0,0,0)" stroke="rgb(0,0,0)" stroke-width="1" opacity="0" d="M 133.5 180 L 142.5 184 L 150 184 L 150 190.5 L 148.5 191 L 113.5 226 L 112 226 L 109.5 222 L 102.5 218 L 97.5 217 L 96 217.5 L 133.5 180 Z " /><path fill="rgb(0,0,0)" stroke="rgb(0,0,0)" stroke-width="1" opacity="0" d="M 209 186 L 230.5 186 Q 231.6 186.1 231 191.5 L 186 236.5 L 186 238 L 159.5 238 L 159 236 L 160.5 236 L 209 187.5 L 209 186 Z " /><path fill="rgb(0,0,0)" stroke="rgb(0,0,0)" stroke-width="1" opacity="0" d="M 292.5 186 L 321.5 186 Q 322.8 186.3 322 192.5 Q 324.1 200.4 330.5 204 L 336 206.5 L 330 211.5 L 326.5 216 L 319 222.5 L 315.5 227 L 308 233.5 L 304.5 238 L 279.5 238 L 278 236.5 L 278 200.5 L 282.5 196 L 289 190.5 L 292.5 186 Z " /><path fill="rgb(0,0,0)" stroke="rgb(0,0,0)" stroke-width="1" opacity="0" d="M 74.5 239 Q 77.5 238.2 76 242 L 72 241.5 L 74.5 239 Z " /><path fill="rgb(0,0,0)" stroke="rgb(0,0,0)" stroke-width="1" opacity="0" d="M 310 287 L 337 287.5 L 278 345.5 L 278 319.5 L 279.5 319 L 310 288.5 L 310 287 Z " /><path fill="rgb(0,0,0)" stroke="rgb(0,0,0)" stroke-width="1" opacity="0" d="M 392.5 289 L 395 296.5 L 401.5 304 L 403 304.5 L 278 428.5 L 278 402.5 L 279.5 402 L 392.5 289 Z " /><path fill="rgb(253,204,0)" stroke="rgb(253,204,0)" stroke-width="1" opacity="0.9686274509803922" d="M 254.5 3 L 281.5 29 L 283 29 Q 284.5 32.8 281.5 32 L 268.5 44 L 260.5 39 Q 255.8 40.2 254.5 38 Q 253.3 40.2 248.5 39 L 240 44 L 235 53.5 L 235 62 Q 222 61.2 216 68.5 L 211 78.5 L 211 85.5 L 217 96.5 L 184.5 129 L 182.5 129 Q 178 121.5 164.5 123 Q 157.1 125.1 153 130.5 Q 148.3 135.6 150 146 Q 136.5 144.8 131 152.5 Q 125.5 157.5 127 169.5 L 133 180.5 L 96.5 217 Q 83.9 217.4 79 225.5 Q 75.2 230.2 75 238.5 L 71.5 242 L 63.5 243 L 55 249.5 L 51 257.5 L 51 262.5 L 29.5 284 L 2 256.5 L 2 254 L 3.5 254 L 254.5 3 Z " /><path fill="rgb(253,204,0)" stroke="rgb(253,204,0)" stroke-width="1" opacity="0.9686274509803922" d="M 295.5 44 L 324 71.5 L 279.5 117 L 279 102 Q 290.1 101.3 295 93.5 Q 299.8 88.3 298 76.5 Q 295.4 69.1 289.5 65 L 279 62 L 279 60.5 L 295.5 44 Z " /><path fill="rgb(253,204,0)" stroke="rgb(253,204,0)" stroke-width="1" opacity="0.9686274509803922" d="M 337.5 85 L 365 112.5 L 365 114.5 L 354 124.5 Q 354.9 127.5 350.5 126 Q 346.7 121.3 336.5 123 Q 329.1 125.1 325 130.5 L 321 141.5 Q 323.3 142.8 320.5 144 L 280.5 144 L 280 142.5 L 337.5 85 Z " /><path fill="rgb(253,204,0)" stroke="rgb(253,204,0)" stroke-width="1" opacity="0.9686274509803922" d="M 230.5 109 L 231 142.5 L 229.5 144 L 197 144 L 197 142.5 L 230.5 109 Z " /><path fill="rgb(253,204,0)" stroke="rgb(253,204,0)" stroke-width="1" opacity="0.9686274509803922" d="M 188 186 L 208.5 186 L 209 187.5 L 157.5 238 L 117 238 Q 117 230.8 113 226.5 L 148.5 191 L 150 191 Q 151.1 198.6 156.5 203 Q 161.2 208.3 172.5 207 Q 180.9 204.8 185 198.5 Q 188.9 194 188 186 Z " /><path fill="rgb(253,204,0)" stroke="rgb(253,204,0)" stroke-width="1" opacity="0.9686274509803922" d="M 279 186 L 292 186.5 L 283.5 196 L 279.5 199 L 279 186 Z " /><path fill="rgb(253,204,0)" stroke="rgb(253,204,0)" stroke-width="1" opacity="0.9686274509803922" d="M 230.5 192 L 231 236.5 L 229.5 238 L 186 238 L 186 236.5 L 230.5 192 Z " /><path fill="rgb(253,204,0)" stroke="rgb(253,204,0)" stroke-width="1" opacity="0.9686274509803922" d="M 60.5 280 Q 65.6 284.4 76 283.5 Q 73.8 284.8 75 289.5 Q 76.8 299.2 83.5 304 L 89 306 L 89 307.5 L 71.5 325 L 43 297.5 L 58.5 281 L 60.5 280 Z " /><path fill="rgb(253,204,0)" stroke="rgb(253,204,0)" stroke-width="1" opacity="0.9686274509803922" d="M 136.5 287 L 191 287.5 L 185.5 294 L 180 298.5 L 174.5 305 L 169 309.5 L 163.5 316 L 158 320.5 L 152.5 327 L 147 331.5 L 141.5 338 L 136 342.5 L 130.5 349 L 125 353.5 L 119.5 360 L 114 364.5 Q 114.8 367.1 111.5 366 L 85.5 340 L 84 340 L 84 338.5 L 134.5 288 L 136.5 287 Z " /><path fill="rgb(37,38,37)" stroke="rgb(37,38,37)" stroke-width="1" opacity="0.984313725490196" d="M 254.5 38 Q 255.8 40.2 260.5 39 L 270 45.5 L 274 53.5 L 274 62.5 L 275 63.5 L 273 64 Q 275 48.2 265.5 43 Q 260.7 38.3 249.5 40 L 240 46.5 Q 234.7 51.2 236 62.5 L 236.5 64 L 228.5 63 Q 220.2 64.7 216 70.5 Q 212.2 75.2 212 83.5 L 214 90.5 L 219.5 97 L 228 100.5 L 225.5 101 L 216 96 L 211 85.5 L 211 78.5 L 217.5 67 L 227.5 62 L 235 62 L 235 53.5 L 240 44 L 248.5 39 Q 253.3 40.2 254.5 38 Z " /><path fill="rgb(37,38,37)" stroke="rgb(37,38,37)" stroke-width="1" opacity="0.984313725490196" d="M 276.5 62 Q 290.4 61.6 295 70.5 Q 299.8 75.7 298 87.5 Q 295.4 94.9 289.5 99 L 279 102 L 278.5 117 L 278 101 Q 289.9 100.1 295 91.5 Q 298.3 86.8 297 77.5 Q 294.9 69.6 288.5 66 Q 284.2 62.8 276.5 63 L 276.5 62 Z " /><path fill="rgb(37,38,37)" stroke="rgb(37,38,37)" stroke-width="1" opacity="0.984313725490196" d="M 229.5 101 L 232 101.5 L 232 145 L 187.5 145 Q 186.4 144.9 187 139.5 Q 185.8 132.8 181.5 129 Q 176.7 123.3 165.5 124 Q 157.8 125.9 154 131.5 L 151 137.5 L 150.5 148 Q 148.8 145.3 142.5 147 Q 134.8 148.8 131 154.5 Q 126.9 159 128 168.5 L 134.5 179 Q 138.8 184.2 149.5 183 L 151.5 182 L 151 183.5 L 151 192.5 Q 153.3 199.3 158.5 203 L 166.5 206 L 171.5 206 Q 181.1 204.1 185 196.5 Q 187.8 191.9 187 185 L 232 185 L 232 239 L 116.5 239 L 116 237.5 L 114 229.5 L 106.5 221 L 99 218.5 L 102.5 218 L 112 224.5 Q 116.8 229.6 117 238 L 157.5 238 L 158.5 237 L 159.5 238 L 229.5 238 L 231 236.5 L 231 186 L 188.5 186 Q 187.4 186.1 188 191.5 Q 185.9 199.8 179.5 204 Q 174.7 208.2 164.5 207 L 154 200.5 Q 148.2 195.5 150 184 L 142.5 184 L 133 180 L 127 169.5 L 127 160.5 L 133.5 150 Q 138.8 144.5 150 146 L 150 136.5 L 156.5 127 Q 161.5 121.5 173.5 123 L 184 129 Q 188 134.5 188 144 L 229.5 144 L 231 142.5 L 231 102.5 L 229.5 102 L 229.5 101 Z " /><path fill="rgb(37,38,37)" stroke="rgb(37,38,37)" stroke-width="1" opacity="0.984313725490196" d="M 336.5 123 L 345.5 123 Q 352.9 125.6 357 131.5 L 360 139.5 L 360 144.5 L 359.5 146 Q 374 145 379 153.5 L 383 162.5 L 383 167.5 Q 381.3 176.8 374.5 181 Q 369.8 185.5 360 184 Q 360.9 198.6 351.5 204 Q 346.7 208.2 336.5 207 Q 328.4 204.1 324 197.5 Q 321 193.3 322 186 L 279.5 186 L 279 186.5 L 279 199.5 L 278 199.5 L 278 185.5 L 278.5 185 L 323 185 Q 321.8 198.4 330.5 203 L 338.5 206 L 343.5 206 Q 351.9 203.8 356 197.5 L 359 190.5 L 359 185.5 L 358 182 Q 360.4 183.8 366.5 183 Q 374.9 180.9 379 174.5 Q 382.8 169.8 381 159.5 L 372.5 149 Q 368.1 145.9 359.5 147 L 358 147.5 L 359 139.5 L 354 129 L 347.5 125 L 337.5 124 Q 329.8 125.9 326 131.5 Q 321.7 135.9 323 145 L 278.5 145 L 278 143.5 L 279.5 144 L 320.5 144 L 322 142.5 L 322 140.5 L 322 136.5 L 328.5 127 L 336.5 123 Z " /><path fill="rgb(37,38,37)" stroke="rgb(37,38,37)" stroke-width="1" opacity="0.984313725490196" d="M 92.5 217 L 96 217.5 Q 84.9 218.9 80 226.5 L 78 229.5 L 76 238.5 L 77 243.5 L 75.5 243 Q 60.1 242.1 55 251.5 Q 50.8 256.3 52 266.5 Q 54.2 274.9 60.5 279 Q 65.3 283.2 75.5 282 L 77 281.5 Q 78.3 286.2 76 287.5 L 78 295.5 L 85.5 304 L 89 305.5 L 86.5 306 L 79 299.5 Q 74.8 294.2 75 284.5 L 75.5 283 L 63.5 282 L 54 273.5 Q 49.6 268.4 51 257.5 Q 53.1 250.1 58.5 246 Q 64.1 240.3 76 242 L 75 235.5 Q 76.8 225.8 83.5 221 L 92.5 217 Z " /><path fill="rgb(37,38,37)" stroke="rgb(37,38,37)" stroke-width="1" opacity="0.984313725490196" d="M 409.5 217 L 420.5 218 Q 428 221 432 227.5 Q 435.4 232.7 434 242 L 445.5 243 L 455 250.5 Q 459.7 255.3 459 265.5 Q 457 275.5 449.5 280 Q 444.4 284.7 434 283 L 433 295.5 L 424.5 305 Q 419.7 309.2 409.5 308 Q 401.5 305.5 397 299.5 L 391.5 287 L 338.5 287 L 337.5 288 L 336.5 287 L 279 287 L 278.5 319 L 278 286 L 393.5 286 Q 394.5 286 394 290.5 Q 395.5 298 400.5 302 Q 405.2 306.8 414.5 307 Q 423.9 305.4 429 299.5 Q 434.3 294.8 433 283.5 L 432 281 Q 434.7 282.9 441.5 282 Q 450.5 279.5 455 272.5 L 458 262.5 Q 455.8 261.2 457 256.5 L 451.5 248 Q 446.5 242 434.5 243 L 432 244 Q 434 241 433 233.5 L 426.5 223 Q 421.5 218 411.5 218 Q 402.9 219.9 398 225.5 Q 393.5 230.2 394 239 L 278.5 239 L 278 237.5 L 279.5 238 L 304.5 238 L 305.5 237 L 306.5 238 L 359.5 238 L 361.5 238 L 391.5 238 L 393 236.5 Q 394 225.5 401.5 221 L 409.5 217 Z " /><path fill="rgb(37,38,37)" stroke="rgb(37,38,37)" stroke-width="1" opacity="0.984313725490196" d="M 116 286 L 232 286 L 232 485.5 L 254.5 508 L 256 508 L 256 506.5 L 278 484.5 L 278.5 429 L 279 484.5 L 254.5 510 L 231 486.5 L 231 287 L 136.5 287 L 135.5 288 L 134.5 287 L 117.5 287 L 116 288.5 L 115 295.5 L 109.5 303 L 103.5 306 L 103.5 305 Q 110.4 303.4 113 297.5 L 116 286 Z " /><path fill="rgb(37,38,37)" stroke="rgb(37,38,37)" stroke-width="1" opacity="0.984313725490196" d="M 90.5 306 L 93 306.5 L 90.5 307 L 90.5 306 Z " /><path fill="rgb(37,38,37)" stroke="rgb(37,38,37)" stroke-width="1" opacity="0.984313725490196" d="M 99.5 306 L 102 306.5 L 99.5 307 L 99.5 306 Z " /><path fill="rgb(37,38,37)" stroke="rgb(37,38,37)" stroke-width="1" opacity="0.984313725490196" d="M 278.5 346 L 279 401.5 L 278 401.5 L 278.5 346 Z " /><path fill="rgb(2,143,193)" stroke="rgb(2,143,193)" stroke-width="1" opacity="0.9686274509803922" d="M 228.5 63 L 234 63.5 L 228.5 64 L 228.5 63 Z " /><path fill="rgb(2,143,193)" stroke="rgb(2,143,193)" stroke-width="1" opacity="0.9686274509803922" d="M 275.5 63 L 281 63.5 L 275.5 64 L 275.5 63 Z " /><path fill="rgb(2,143,193)" stroke="rgb(2,143,193)" stroke-width="1" opacity="0.9686274509803922" d="M 212.5 80 L 213 83.5 L 212 83.5 L 212.5 80 Z " /><path fill="rgb(2,143,193)" stroke="rgb(2,143,193)" stroke-width="1" opacity="0.9686274509803922" d="M 228.5 100 L 232 100.5 L 228.5 101 L 228.5 100 Z " /><path fill="rgb(2,143,193)" stroke="rgb(2,143,193)" stroke-width="1" opacity="0.9686274509803922" d="M 278.5 100 L 281 100.5 L 278 101 L 277.5 145 L 277 101.5 L 278.5 100 Z " /><path fill="rgb(2,143,193)" stroke="rgb(2,143,193)" stroke-width="1" opacity="0.9686274509803922" d="M 181.5 129 L 182.5 131 L 181.5 129 Z " /><path fill="rgb(2,143,193)" stroke="rgb(2,143,193)" stroke-width="1" opacity="0.9686274509803922" d="M 396.5 145 L 425 172.5 L 361.5 237 L 359.5 238 L 306 238 Q 308.1 231.1 314.5 227 L 319 223.5 L 325.5 216 L 330 212.5 L 333.5 208 L 347.5 206 L 357 198.5 Q 361.2 193.4 360 184 L 368.5 184 Q 375.9 181.4 380 175.5 L 383 167.5 L 383 162.5 L 382 160.5 L 390.5 151 L 395 147.5 L 396.5 145 Z " /><path fill="rgb(2,143,193)" stroke="rgb(2,143,193)" stroke-width="1" opacity="0.9686274509803922" d="M 135.5 150 L 134.5 152 L 135.5 150 Z " /><path fill="rgb(2,143,193)" stroke="rgb(2,143,193)" stroke-width="1" opacity="0.9686274509803922" d="M 132.5 153 L 131.5 155 L 132.5 153 Z " /><path fill="rgb(2,143,193)" stroke="rgb(2,143,193)" stroke-width="1" opacity="0.9686274509803922" d="M 132.5 176 L 134.5 179 L 132.5 176 Z " /><path fill="rgb(2,143,193)" stroke="rgb(2,143,193)" stroke-width="1" opacity="0.9686274509803922" d="M 277.5 185 L 278 238.5 L 277 238.5 L 277.5 185 Z " /><path fill="rgb(2,143,193)" stroke="rgb(2,143,193)" stroke-width="1" opacity="0.9686274509803922" d="M 438.5 186 L 465.5 213 L 467 213 L 467 214.5 L 441.5 240 Q 439.3 243 434 242 Q 435.9 229.9 429.5 225 Q 427.8 227.8 426 223.5 Q 428.8 221.8 424.5 220 Q 419.7 215.8 409.5 217 L 407.5 218 L 438.5 186 Z " /><path fill="rgb(2,143,193)" stroke="rgb(2,143,193)" stroke-width="1" opacity="0.9686274509803922" d="M 157.5 201 L 158.5 203 L 157.5 201 Z " /><path fill="rgb(2,143,193)" stroke="rgb(2,143,193)" stroke-width="1" opacity="0.9686274509803922" d="M 166.5 205 L 172 205.5 L 166.5 206 L 166.5 205 Z " /><path fill="rgb(2,143,193)" stroke="rgb(2,143,193)" stroke-width="1" opacity="0.9686274509803922" d="M 338.5 205 L 344 205.5 L 338.5 206 L 338.5 205 Z " /><path fill="rgb(2,143,193)" stroke="rgb(2,143,193)" stroke-width="1" opacity="0.9686274509803922" d="M 93.5 218 L 99 218.5 L 93.5 219 L 93.5 218 Z " /><path fill="rgb(2,143,193)" stroke="rgb(2,143,193)" stroke-width="1" opacity="0.9686274509803922" d="M 411.5 218 L 416 218.5 L 411.5 219 L 411.5 218 Z " /><path fill="rgb(2,143,193)" stroke="rgb(2,143,193)" stroke-width="1" opacity="0.9686274509803922" d="M 400.5 223 L 398.5 226 L 400.5 223 Z " /><path fill="rgb(2,143,193)" stroke="rgb(2,143,193)" stroke-width="1" opacity="0.9686274509803922" d="M 479.5 228 L 506.5 254 L 508 254 Q 509.5 257.7 506.5 257 L 279 483.5 L 279 428.5 L 402.5 305 Q 407.3 309.2 417.5 308 L 427 302.5 Q 424.2 300.8 428.5 299 Q 429.8 301.3 431 298.5 L 430 296.5 L 433 295.5 L 434 283 L 443.5 283 Q 451.6 280.1 456 273.5 L 459 265.5 L 459 259.5 L 456 251.5 L 479.5 228 Z " /><path fill="rgb(2,143,193)" stroke="rgb(2,143,193)" stroke-width="1" opacity="0.9686274509803922" d="M 393.5 231 L 394 232.5 L 391.5 238 Q 387.1 239.5 388 236.5 L 393.5 231 Z " /><path fill="rgb(2,143,193)" stroke="rgb(2,143,193)" stroke-width="1" opacity="0.9686274509803922" d="M 451.5 248 L 452.5 250 L 451.5 248 Z " /><path fill="rgb(2,143,193)" stroke="rgb(2,143,193)" stroke-width="1" opacity="0.9686274509803922" d="M 277.5 286 L 278 484.5 L 277 484.5 L 277.5 286 Z " /><path fill="rgb(2,143,193)" stroke="rgb(2,143,193)" stroke-width="1" opacity="0.9686274509803922" d="M 279 287 L 309.5 287 L 310 288.5 L 279 318.5 L 279 287 Z " /><path fill="rgb(2,143,193)" stroke="rgb(2,143,193)" stroke-width="1" opacity="0.9686274509803922" d="M 338.5 287 L 391.5 287 L 393 288.5 L 279 401.5 L 279 345.5 L 336.5 288 L 338.5 287 Z " /><path fill="rgb(2,143,193)" stroke="rgb(2,143,193)" stroke-width="1" opacity="0.9686274509803922" d="M 398.5 299 L 400.5 302 L 398.5 299 Z " /><path fill="rgb(2,143,193)" stroke="rgb(2,143,193)" stroke-width="1" opacity="0.9686274509803922" d="M 93.5 306 L 99 306.5 L 93.5 307 L 93.5 306 Z " /><path fill="rgb(2,143,193)" stroke="rgb(2,143,193)" stroke-width="1" opacity="0.9686274509803922" d="M 412.5 306 L 415 306.5 L 412.5 307 L 412.5 306 Z " /><path fill="rgb(2,143,193)" stroke="rgb(2,143,193)" stroke-width="1" opacity="0.9686274509803922" d="M 230.5 312 L 231 367.5 L 171.5 426 L 144 397.5 L 155 387.5 L 161.5 380 L 166 376.5 L 171.5 370 L 177 365.5 L 182.5 359 L 188 354.5 L 193.5 348 L 198 344.5 L 205.5 336 L 209 333.5 L 215.5 326 L 220 322.5 L 226.5 315 L 230.5 312 Z " /><path fill="rgb(2,143,193)" stroke="rgb(2,143,193)" stroke-width="1" opacity="0.9686274509803922" d="M 230.5 394 L 231 449.5 L 214.5 467 L 212.5 467 L 185 439.5 Q 184.3 437.3 186.5 438 L 230.5 394 Z " /><path fill="rgb(2,143,193)" stroke="rgb(2,143,193)" stroke-width="1" opacity="0.9686274509803922" d="M 230.5 477 L 231 484.5 L 227 481.5 L 230.5 477 Z " /></svg>